<svg xmlns="http://www.w3.org/2000/svg" width="158" height="177" viewBox="0 0 158 177" fill="none">
<g clip-path="url(#clip0_1_3901)">
<path fill-rule="evenodd" clip-rule="evenodd" d="M80.3599 177C82.0439 176.609 83.6588 175.356 85.194 174.593C86.062 174.161 86.7648 173.713 87.6111 173.296C88.4817 172.867 89.1815 172.429 90.0314 172.003C93.2527 170.388 96.3541 168.428 99.4364 166.557C99.8215 166.323 100.11 166.092 100.446 165.896C102.368 164.773 104.235 163.495 106.093 162.262C106.54 161.965 106.769 161.823 107.211 161.524C107.694 161.197 107.806 161.06 108.286 160.743L110.45 159.195C113.141 157.168 116.19 155.012 118.62 152.703C123.074 148.47 127.414 144.219 131.17 139.28C133.047 136.812 134.817 134.201 136.386 131.514C136.658 131.049 136.849 130.785 137.071 130.345C137.498 129.501 137.937 128.8 138.37 127.936C138.788 127.102 139.164 126.352 139.609 125.466C140.482 123.728 141.166 122.154 141.903 120.345C147.95 105.508 150.659 88.1926 152.485 71.8211C153.042 66.831 153.436 61.6442 153.801 56.6535L154.161 53.3085C154.228 52.7349 154.121 52.0577 154.188 51.4841C154.26 50.8662 154.37 50.7184 154.361 49.8052C154.353 48.9343 154.414 48.6806 154.506 48.0978C154.599 47.5045 154.53 46.8821 154.539 46.2793C154.551 45.3707 154.706 45.4464 154.739 44.627C154.763 44.0255 154.701 43.3631 154.725 42.7616C154.757 41.9428 154.912 42.0175 154.925 41.1096L155.097 35.7259C155.11 34.8182 155.264 34.8923 155.297 34.0739C155.351 32.7058 155.253 31.6734 155.436 30.5094C155.597 29.4842 155.425 27.9351 155.469 26.8392C155.518 25.6167 155.662 25.0658 155.662 23.3285C155.661 21.8849 155.856 21.0516 155.85 19.8129C155.844 18.5778 155.848 17.3429 155.848 16.1079C150.033 16.1079 142.768 15.6895 138.693 11.158L135.584 6.84791C134.732 5.37009 132.597 1.73398 132.235 0.185303C129.879 0.185303 127.525 0.185303 125.169 0.185303C122.569 0.185303 120.577 0.37063 118.104 0.37063C118.749 1.70978 119.151 3.40562 119.839 4.75197C121.347 7.69846 122.847 10.7576 125.028 13.2857C126.177 14.6166 127.264 16.1607 128.667 17.2531C129.065 17.5629 129.09 17.5116 129.494 17.9117C131.868 20.2676 135.247 21.917 138.391 22.9376C139.8 23.3948 141.956 23.8843 143.762 23.8843C143.762 28.5283 143.948 32.5556 143.948 37.2146C143.948 41.7199 143.948 46.2252 143.948 50.7305L143.392 70.3569C143.339 71.0498 143.21 70.96 143.197 71.8299L142.085 85.9044C141.865 88.7901 141.343 91.8748 140.834 94.8419C140.478 96.92 140.157 98.6369 139.813 100.675C139.523 102.391 138.94 104.466 138.599 106.132C137.858 109.741 136.748 113.438 135.605 116.851C135.011 118.625 134.399 120.13 133.793 121.898C133.209 123.602 132.468 125.004 131.838 126.615C131.224 128.182 130.367 129.791 129.632 131.269C128.17 134.209 126.411 137.055 124.651 139.825C124.18 140.568 123.75 141.067 123.272 141.785C122.781 142.524 122.409 143.023 121.874 143.724C121.599 144.085 121.431 144.306 121.156 144.677C119.937 146.322 118.605 147.831 117.312 149.365C115.794 151.168 114.034 152.802 112.294 154.552C111.651 155.198 111.17 155.478 110.527 156.124C109.114 157.545 107.516 158.647 106.064 160.012C104.593 161.393 102.919 162.575 101.293 163.778C100.586 164.301 100.032 164.672 99.3554 165.181L91.2187 170.594C88.7151 172.112 86.2552 173.729 83.6473 175.089C83.1943 175.325 82.9629 175.41 82.5541 175.667C81.8668 176.098 80.8006 176.401 80.3599 177Z" fill="#000000"/>
<path fill-rule="evenodd" clip-rule="evenodd" d="M61.2099 128.862C61.2283 128.843 61.2652 128.891 61.2655 128.917L61.2099 128.862ZM81.2904 128.677C81.5622 128.498 81.6528 128.491 82.0339 128.491V128.677H81.2904ZM59.3507 128.306C60.0051 128.306 60.175 128.263 60.7178 128.611C61.1575 128.893 60.7757 128.647 61.0239 128.862C60.2405 128.797 60.038 128.491 59.3504 128.491L59.3507 128.306ZM74.0391 129.973L74.3439 129.721C75.1497 129.049 75.7343 127.992 76.2702 127.195C76.5721 127.34 79.6689 127.925 80.1748 127.936V128.306C78.7551 128.636 76.1952 129.925 74.0391 129.973ZM61.3958 127.936C62.5746 127.663 64.3913 127.301 65.6724 127.195C65.9943 128.397 67.3014 129.354 67.7178 129.973C66.8057 129.897 65.2122 129.477 64.3919 129.211L62.1101 128.336C61.6941 128.171 61.8122 128.296 61.3958 127.936ZM66.6019 127.01C68.2784 127.01 69.4101 126.825 70.8785 126.825C72.0681 126.825 72.4298 127.022 73.4776 127.014C74.7271 127.005 75.5668 126.873 74.7985 127.94C72.5227 131.098 68.4259 131.076 66.6019 127.01ZM93.5617 123.492L93.6173 123.547C93.6137 123.544 93.5433 123.511 93.5617 123.492ZM48.009 123.492L48.0646 123.547C48.061 123.544 47.9905 123.511 48.009 123.492ZM49.3105 123.307C55.4264 121.888 52.3895 122.675 55.8181 125.158C56.3856 125.569 56.5923 125.882 57.2279 126.347C57.9564 126.879 58.1911 127.22 58.7931 127.38V127.75C57.431 127.781 58.2777 128.175 56.1308 127.254C53.9001 126.297 54.2704 126.358 52.6575 125.529C52.218 125.303 51.9501 125.119 51.4807 124.849L49.8148 123.731C49.7848 123.707 49.7427 123.671 49.7134 123.647C49.6838 123.623 49.639 123.587 49.6107 123.564L49.3105 123.307ZM82.7779 127.936C83.159 127.369 83.7275 127.131 84.3427 126.717C85.6393 125.844 87.879 123.644 88.7275 122.381C88.9988 122.511 92.3408 123.111 92.8181 123.122L91.7796 123.939C90.4402 124.842 89.6621 125.343 88.1699 126.084C86.8747 126.728 84.2943 128.288 82.7779 127.936ZM54.3306 122.381L63.4413 121.271C63.4772 122.878 64.936 125.692 65.1148 126.455C64.0456 126.455 62.5907 126.825 61.5963 127.024C59.6272 127.418 60.223 127.394 58.6815 126.381C57.4458 125.568 55.0874 123.507 54.3306 122.381ZM76.6422 126.455C77.3917 125.044 78.0925 123.018 78.5013 121.271C81.6077 121.271 86.0679 122.196 87.798 122.196C86.9461 123.463 85.7282 124.512 84.5886 125.481L81.9618 127.323C81.2469 127.725 78.9032 126.642 76.6422 126.455ZM64.1849 121.271C65.1493 121.249 65.779 121.092 67.9081 121.09C68.7833 121.089 69.4838 120.9 71.6221 120.9C73.7419 120.9 75.3321 121.085 77.5718 121.085C77.5527 121.934 77.1695 123.042 76.8858 123.735L75.8983 126.269L69.205 126.084C67.8587 126.084 67.3426 126.269 66.044 126.269C65.6704 125.566 65.337 124.796 65.042 123.935L64.1849 121.271ZM94.6772 122.751C94.7101 122.723 94.7631 122.635 94.778 122.667C94.7928 122.698 94.8573 122.598 94.8777 122.581C96.1789 121.499 97.3616 120.182 98.4442 118.912C99.6121 117.542 99.6401 117.562 100.775 115.864C101.393 114.941 101.97 114.095 102.486 113.124C102.906 113.325 103.88 113.494 104.531 113.494C104.356 114.147 104.05 114.367 103.653 114.842C101.264 117.697 101.485 117.301 98.9113 119.747L95.5815 122.356C94.9564 122.833 95.5413 122.68 94.6772 122.751ZM37.2248 113.68C38.0184 113.614 38.6066 113.328 39.4559 113.309C40.689 115.629 42.2314 117.64 43.9675 119.555C44.4349 120.071 44.162 119.948 44.9872 120.762C45.8832 121.644 46.8062 122.254 47.265 122.936C46.7641 122.803 46.4349 122.472 45.7752 122.013C42.9684 120.062 40.5754 117.528 38.293 115.023C37.9816 114.681 38.0602 114.696 37.8157 114.387C37.5513 114.053 37.4704 114.044 37.2248 113.68ZM93.7473 122.381C93.2174 122.381 89.7562 121.82 89.6189 121.687C89.4346 121.508 90.904 119.409 91.3362 118.684C93.7292 114.669 93.2957 114.309 94.4909 111.828C95.5206 111.828 98.5565 112.414 99.8086 112.643C100.464 112.762 100.895 112.924 101.556 112.939C101.261 114.039 98.909 117.017 98.1355 118.049C97.5321 118.853 94.1542 122.381 93.7473 122.381ZM40.3855 113.124C41.4997 112.866 42.6008 112.708 43.8411 112.492C45.0807 112.275 46.3111 112.013 47.6367 112.013L48.6403 114.717C49.3707 116.506 50.8372 119.036 51.9488 120.679C52.2977 121.195 52.507 121.268 52.6568 121.826C49.5412 121.895 49.0992 123.551 47.2153 121.69C46.3723 120.857 44.4352 119.01 43.9178 118.308C42.242 116.035 41.9888 116.142 40.3855 113.124ZM61.5815 110.532C61.5815 111.424 61.6783 112.196 61.8096 113.082L63.069 120.53C59.2401 120.53 56.7885 121.375 53.5864 121.641C52.693 119.959 51.2019 118.538 49.6222 114.85C48.1061 111.311 48.4102 111.727 49.6726 111.634C53.4297 111.357 57.0706 110.532 61.5815 110.532ZM88.5412 121.456L81.2502 120.57C80.79 120.5 80.4309 120.561 79.9882 120.53C79.2647 120.481 79.5204 120.363 78.6873 120.345C79.2044 119.271 79.8009 114.697 80.0073 112.957C80.0879 112.275 80.3015 111.053 80.3608 110.347C82.136 110.347 84.5096 110.706 85.3783 110.719C86.3075 110.734 86.3612 110.853 87.055 110.901C89.5245 111.073 91.5301 111.474 93.5617 111.643C93.4847 112.565 92.9139 113.568 92.5729 114.361C91.1765 117.607 90.4958 118.549 88.5412 121.456ZM62.3251 110.347C64.7152 110.347 66.4245 110.162 68.833 110.162H77.0138C78.1448 110.162 78.37 110.347 79.4309 110.347C79.4309 111.239 79.3341 112.011 79.2028 112.897C79.0925 113.643 78.9747 114.614 78.8269 115.485L77.9434 120.345C76.764 120.345 76.391 120.16 75.1544 120.16L66.6154 120.173C63.7425 120.509 63.9864 120.578 63.7349 119.311L62.5512 112.344C62.4409 111.594 62.5644 110.88 62.3251 110.347ZM105.275 112.939C104.821 112.722 103.464 112.524 102.858 112.384C105.085 108.192 105.723 105.533 106.763 101.09C108.142 101.41 109.252 102.057 110.667 102.386C110.636 103.766 107.962 108.847 106.875 110.458C106.296 111.316 105.738 112.069 105.275 112.939ZM30.9033 102.016C31.5494 101.962 34.4516 100.978 34.9937 100.719C36.1692 105.744 36.6527 107.993 39.0839 112.569C38.2413 112.569 37.5454 112.778 36.8528 112.939C36.3509 112.604 36.2337 112.393 35.8858 111.866C35.5908 111.419 35.3545 111.111 35.0681 110.643C33.4265 107.959 32.2954 105.758 31.1621 102.868C31.0692 102.631 30.9589 102.14 30.9033 102.016ZM102.114 112.198C101.929 112.194 95.0515 111.067 94.9254 110.834L96.49 103.821C96.7757 102.138 97.0943 100.337 97.0943 98.4979C98.1513 98.5211 100.339 99.2157 101.482 99.4973C103.069 99.888 104.316 100.368 105.833 100.72C105.833 101.904 105.525 102.912 105.278 103.87C105.134 104.428 105.006 104.697 104.833 105.278C104.165 107.519 102.115 112.194 102.114 112.198ZM61.7675 97.3867V96.0907C62.7102 96.0907 62.7836 95.9015 63.808 95.9009C66.8544 95.8976 72.7215 95.4512 75.3805 95.8658L79.9888 96.0907L79.9934 103.131C79.9924 104.121 79.6169 107.488 79.6169 109.421L69.7623 109.236L62.3251 109.606C62.3251 108.778 62.2198 108.865 62.1529 108.296C62.092 107.777 62.1789 107.164 62.1404 106.643C62.0361 105.24 61.9482 106.058 61.9535 103.681C61.9561 102.395 61.7639 101.805 61.7625 100.724C61.7615 99.612 61.7675 98.4989 61.7675 97.3867ZM35.9233 100.534C36.6063 100.208 37.233 100.145 38.08 99.9047C39.2268 99.5795 43.896 98.3917 44.848 98.3124C44.848 99.555 45.5053 103.699 45.7634 104.992C46.3523 107.939 46.7249 108.78 47.2647 111.087C46.2298 111.173 41.2337 112.057 39.8275 112.384C39.6195 111.494 38.9733 110.632 38.6001 109.718C37.7067 107.527 35.9233 102.713 35.9233 100.534ZM45.7775 98.1275C47.902 97.6345 58.3037 96.0907 61.0239 96.0907L61.0216 103.314L61.3955 109.607L54.6999 110.16C52.9843 110.229 49.5304 110.902 48.0086 110.902C47.9886 110.002 45.7775 103.584 45.7775 98.1275ZM93.9336 110.903C93.1621 110.534 83.3457 109.588 81.6564 109.612C79.4733 109.643 80.7525 109.477 80.7327 104.423C80.7239 102.098 80.8812 102.395 80.9256 101.282L80.9187 96.091C84.1337 96.1625 93.7062 97.6994 96.3507 98.3127L95.9732 101.64C95.4123 106.293 94.826 107.087 93.9336 110.903ZM35.1797 89.4256H35.3657C35.3657 90.7935 36.998 92.2973 37.9681 92.9443C40.0721 94.3469 42.051 94.2397 44.6623 94.2397C44.6623 98.6149 46.8582 96.757 37.2222 99.2357C36.6395 99.3855 36.3881 99.5546 35.7376 99.6087C35.0563 96.6971 35.1797 93.0158 35.1797 89.4256ZM97.2803 97.5722V92.7582C98.6246 93.1158 97.6664 93.5052 101.294 94.1306C102.968 94.4193 104.985 94.2397 106.763 94.2397C106.429 94.931 106.509 99.6412 105.986 99.8808C105.913 99.9149 104.557 99.5241 104.32 99.4497L97.2803 97.5722ZM99.5114 88.8701H105.089V92.2026C103.031 92.2026 98.3596 92.4756 97.3636 89.7131C96.6585 87.7586 97.063 85.8368 98.7286 84.5726C100.284 83.3919 103.848 83.6859 106.019 83.6859L106.428 86.828L99.5114 86.8336V88.8701ZM63.6269 87.0184H62.1394C62.1394 84.6221 62.1773 85.4585 62.3251 83.6859C63.6217 83.6859 64.8955 83.5863 66.0779 84.0222C67.887 84.6886 67.5091 87.0184 63.6269 87.0184ZM94.8629 87.574C94.8629 90.78 96.3329 91.3517 96.5364 92.0177V93.869C95.9929 93.5068 95.7477 93.0217 95.2803 92.5281C94.9323 92.1606 94.9834 92.1455 94.7098 91.7997L92.7704 89.4732C92.4425 89.1133 92.5057 89.0939 92.2091 88.7357L91.5162 87.9444C91.7503 87.5966 91.7595 87.654 92.0228 87.338C92.7276 86.4933 94.955 83.2477 95.7928 82.9458C95.7928 83.7479 95.7039 83.8564 95.9788 84.4267C95.3997 85.2881 94.8629 86.1315 94.8629 87.574ZM44.662 92.2029C42.605 92.2029 40.4362 92.3812 38.8618 91.1281C35.8696 88.7475 37.0533 85.3838 39.5787 84.1786C40.8927 83.5519 43.4895 83.6859 45.4059 83.6859C45.0524 85.196 44.662 90.3772 44.662 92.2029ZM80.1745 81.0942C82.8644 81.0942 83.3111 80.9922 85.5807 80.7379C85.9418 80.6973 86.3263 80.7487 86.6828 80.7241C87.7226 80.653 94.751 79.5438 94.9751 79.6723C95.3254 79.8735 95.4212 81.122 95.4212 81.6498H94.1196L90.4464 85.9532C89.849 86.5841 89.8661 86.8778 89.0995 87.3892V81.6494H87.2404V94.2397C89.8961 94.2397 89.2855 94.8697 89.2855 88.5L89.8875 89.1965C90.1637 89.481 90.2572 89.5276 90.5126 89.8698L94.1196 94.2394H96.537C96.537 95.5892 96.3507 96.1762 96.3507 97.3867L92.7437 96.7203C91.4261 96.4797 90.1196 96.2742 88.8928 96.1117C86.3944 95.7803 83.6146 95.3506 80.9187 95.3506C80.9187 92.9414 80.7324 91.2251 80.7324 88.8701H85.0093C85.2565 88.502 85.3477 88.3571 85.5672 87.9444C85.4095 87.6176 85.3526 87.3452 85.1949 87.0184C84.2924 87.0184 81.8127 87.1446 81.0961 87.027C80.3196 86.8995 80.5296 86.4514 80.5454 85.5388C80.5629 84.4965 80.425 84.2667 80.3611 83.5007C80.9372 83.4516 80.7127 83.5027 81.105 83.3152C80.9869 82.8104 80.9711 82.6452 80.6847 82.2526C80.2824 81.6996 80.2867 81.9654 80.1745 81.0942ZM62.5114 81.0942C65.358 81.0942 67.8656 81.2797 70.8782 81.2797C73.7291 81.2797 76.58 81.2797 79.4309 81.2797V81.6498H70.5065C70.0049 82.3955 69.6806 82.2571 69.5766 83.5014H74.4108V94.2397H76.2699V83.5014H79.6169L79.8028 87.0191H78.3153C78.158 87.3456 78.1007 87.6183 77.9434 87.9451C78.1629 88.3577 78.2538 88.5026 78.5013 88.8707H79.8032C79.8516 89.4502 79.9892 89.5286 79.9892 90.1671V95.166C78.2087 95.166 77.1494 94.9808 75.3407 94.9808H66.7879C64.8607 94.9808 63.6697 95.166 61.7678 95.166C61.7678 92.8883 61.9538 91.3143 61.9538 89.0562C62.9959 89.0792 62.5124 89.1166 63.8583 90.6774C64.1546 91.0213 64.1454 91.0799 64.4222 91.412L66.0911 93.453C66.4568 93.8723 66.3518 93.7687 66.6023 94.2404H69.2053C68.9917 93.4442 67.7718 92.2848 67.2349 91.5736C66.3781 90.4381 65.9627 90.132 65.1148 88.871C70.0842 88.871 71.4265 81.6504 63.9989 81.6504H62.5117L62.5114 81.0942ZM46.8931 79.2426C47.8444 79.2639 49.5867 79.6195 50.4701 79.7539C52.5923 80.0764 59.8698 80.909 61.5815 80.909V81.6498H59.5361V94.2397H61.0236C61.0236 95.6282 61.2415 95.2086 58.4064 95.5213L51.3757 96.2965C49.7782 96.505 46.9211 97.2018 45.5912 97.2018V94.2397C47.6844 94.2397 47.4507 94.4701 47.4507 92.7582C47.4507 92.02 46.923 92.2026 45.5912 92.2026L45.7719 87.3839C45.7841 86.1836 46.1488 84.9485 46.1488 83.6859C47.899 83.6859 47.2644 83.9059 47.2644 81.6494H46.5208C46.5942 80.7707 46.8931 80.2511 46.8931 79.2426ZM64.3705 66.0974C65.4861 66.0974 66.6019 66.0997 67.7175 66.0974C69.074 66.0944 69.6688 66.2904 70.8758 66.2845C73.3512 66.2734 75.2001 66.0974 77.5714 66.0974L78.5221 73.1121C78.7123 74.5127 79.2449 79.2167 79.2449 80.3537L68.6457 80.5399C67.915 80.4852 68.2629 80.4075 67.5325 80.3524C66.7353 80.2928 65.7425 80.3731 64.9212 80.3606C63.9795 80.3472 63.6506 80.1685 62.5114 80.1685C62.7494 77.3192 63.7622 68.697 64.3705 66.0974ZM95.9788 79.4278L104.531 77.5761C104.61 78.5159 105.434 80.4278 105.461 81.6494C102.529 81.6494 99.8303 81.3921 97.4992 82.9832C96.3698 83.7534 96.7865 83.7866 96.2069 80.8713C96.0996 80.3308 96.0406 79.906 95.9788 79.4278ZM35.7373 84.9823C35.7373 83.8098 36.2067 81.9982 36.444 81.0571L37.4108 77.3913C37.9677 77.6574 45.1778 79.0357 46.1495 79.0577C45.8924 82.1378 45.4033 81.6616 44.6725 81.6599C43.0836 81.6563 42.1238 81.6848 40.7627 81.8396C38.0533 82.1477 37.234 83.2047 35.9954 84.6833C35.972 84.7112 35.9315 84.7587 35.9101 84.7836C35.889 84.8086 35.8407 84.8617 35.8232 84.882C35.8058 84.9023 35.7659 84.9495 35.7373 84.9823ZM34.2501 92.2029C34.2501 95.2886 34.8081 98.5287 34.8081 99.9791C33.2514 100.34 31.9799 100.939 30.5313 101.275C30.4822 100.687 30.3261 100.393 30.1807 99.9578C30.0119 99.4524 29.9164 99.0125 29.7877 98.4979C28.2088 92.195 27.918 84.7682 29.5271 78.428C29.7618 77.5031 29.9589 76.7675 30.1595 75.9101C31.4923 75.9399 35.3255 77.1805 36.4812 77.2064C36.4565 78.3156 34.2501 84.2648 34.2501 92.2029ZM105.275 77.3913L111.597 75.54C111.648 76.1526 111.807 76.4076 111.934 76.8704C112.793 80.0056 113.867 86.8083 113.345 89.6852C113.23 90.3156 113.34 90.9967 113.125 92.4287L112.759 95.2119C112.496 96.7829 111.24 101.464 111.225 101.646C109.771 101.525 108.453 100.474 106.948 100.349C106.948 99.3678 107.506 96.6515 107.506 94.0545C107.506 90.4191 107.587 87.2089 106.763 83.6863H107.135V81.6494H106.391C106.332 80.9519 105.52 77.9 105.275 77.3913ZM61.7675 80.1685C58.9837 79.9381 53.3892 79.3612 50.9079 78.9482C49.7927 78.7624 48.3513 78.5024 47.265 78.5024C47.265 76.0097 50.4099 67.4658 51.7272 64.9869L63.441 65.9125C63.441 66.9955 61.7675 77.0674 61.7675 80.1685ZM78.3153 66.0977C79.6014 66.0977 80.2094 65.9066 81.2857 65.9076L87.3516 65.468C88.1163 65.3333 89.6538 65.1717 90.401 65.1717C91.6025 67.4334 94.8109 76.3483 94.8632 78.6873C92.4211 79.254 90.117 79.3124 87.7233 79.7241L80.1745 80.3537L79.4128 73.1515C79.3098 72.2766 78.4891 66.4845 78.3153 66.0977ZM91.3303 64.9869C93.198 64.9869 96.6154 64.0609 98.0239 64.0609C98.1822 64.6512 98.5008 64.9547 98.8435 65.4667C99.1947 65.9915 99.4386 66.4153 99.7579 66.9624C100.78 68.713 102.097 71.3631 102.917 73.259C103.222 73.9627 104.107 76.2106 104.16 76.8357C102.73 76.9544 96.1318 78.9853 95.6809 78.2471C95.674 78.236 95.088 75.6613 95.0143 75.3889C94.4574 73.3324 93.6815 70.8082 92.8757 68.8166L91.8289 66.3416C91.7358 66.1269 91.6538 65.8843 91.5702 65.6732C91.4972 65.4887 91.3605 65.0544 91.3303 64.9869ZM66.6016 56.0998H75.3407L77.3858 65.3569L67.7155 65.3592C66.5121 65.3645 65.9104 65.1717 64.5568 65.1717C64.5828 64.0107 66.2277 56.8753 66.6016 56.0998ZM46.3352 78.3173C45.7917 78.0573 43.0201 77.7158 42.1037 77.5319C40.7607 77.2621 39.1659 76.9717 37.7824 76.6508C37.864 75.6744 39.2159 72.4835 39.7041 71.5286C40.024 70.9036 40.1392 70.4604 40.4424 69.857C40.7222 69.2994 40.9431 69.0687 41.2531 68.4423C41.5859 67.7694 41.7617 67.5114 42.1198 66.8985C42.4859 66.2714 43.8045 64.3005 43.9181 63.8757C45.85 63.8757 48.9471 64.7604 50.7977 64.8013C50.64 65.4759 50.3928 65.709 50.1281 66.3566C49.877 66.9722 49.719 67.4026 49.4965 67.949C48.5995 70.15 46.5192 76.1179 46.3352 78.3173ZM98.7675 63.8757C99.6796 63.8003 100.899 63.4715 101.883 63.2755C102.895 63.0743 104.062 62.8183 105.089 62.58C105.261 63.2211 105.575 63.446 105.944 63.9501L107.655 66.69C108.009 67.2531 108.158 67.674 108.51 68.2453C109.149 69.2804 111.118 73.5225 111.225 74.7995L108.226 75.7019C107.3 75.9835 105.981 76.466 104.903 76.466C104.809 75.3358 102.941 71.1805 102.304 69.7967L100.633 66.8326C100.007 65.7824 99.433 64.8656 98.7675 63.8757ZM36.8528 76.4656C36.2831 76.4184 35.7709 76.2296 35.3225 76.1379C34.2988 75.9281 31.0296 75.223 30.531 74.9844C30.7292 72.6156 36.158 62.5797 37.0388 62.5797C37.997 62.5797 39.2646 62.931 40.0586 63.0903C41.1633 63.3122 42.159 63.4552 43.1745 63.6905C42.2301 65.0947 41.3213 66.535 40.5115 68.0745C39.3565 70.271 37.4068 74.0981 36.8528 76.4656ZM63.6266 65.1717L57.6022 64.6905C56.644 64.5208 55.4922 64.4975 54.5173 64.43C51.9099 64.2497 51.6733 64.429 53.6236 61.32C54.0778 60.5956 54.4343 59.9184 54.8876 59.2465L57.6772 55.3587C58.9577 55.3587 60.3514 55.7219 61.5762 55.734C62.9637 55.7481 64.0611 55.914 65.6717 55.914C65.6144 56.6026 65.3008 57.5781 65.1513 58.173L63.6266 65.1717ZM76.0843 55.9143C79.4154 55.9143 82.0089 55.3587 84.265 55.3587C84.7094 56.0198 85.2762 56.6947 85.7828 57.365C86.3368 58.0973 86.8197 58.726 87.3006 59.5566C87.8974 60.5871 89.7496 63.3185 89.8428 64.4313C88.6545 64.4313 88.2321 64.5863 87.2397 64.6165L84.4905 64.8417C82.5869 65.133 80.2818 65.1717 78.129 65.1717C78.1024 63.9809 77.0885 59.7214 76.7159 58.2471C76.5362 57.5358 76.3222 56.4443 76.0843 55.9143ZM85.1946 55.1738C86.0201 54.9824 88.1808 54.6183 89.0992 54.6183C89.405 54.711 91.0406 56.2817 91.2809 56.519C92.4168 57.6381 91.641 56.5276 93.4238 58.644C94.3589 59.7539 96.408 61.6789 97.2803 63.3204C96.2408 63.3431 92.5637 64.0976 90.7727 64.2461C90.4948 63.0592 88.3609 59.6241 87.5376 58.3952L85.1946 55.1738ZM51.1693 64.0609C50.7638 63.8668 45.2927 63.1349 44.6617 63.1349C45.821 61.4111 49.2384 57.4899 50.8454 56.1473C54.1051 53.4245 52.4553 55.1738 56.747 55.1738C53.664 59.7588 53.7809 59.1462 51.1693 64.0609ZM68.6467 49.8045C69.392 49.8045 70.1379 49.8101 70.8828 49.8094C71.9275 49.8081 72.0562 49.6193 73.1092 49.6193C73.2518 50.228 73.3722 50.4293 73.5925 50.9894C73.8084 51.5381 73.8818 51.8135 74.0967 52.3389C74.47 53.2511 74.7406 54.1984 74.9687 55.1738L71.8215 55.1873C71.1879 55.2623 71.6267 55.34 70.8722 55.3666C70.1856 55.3912 69.9713 55.1696 69.0236 55.1686C68.2787 55.1679 67.5328 55.1735 66.7876 55.1735C67.1171 54.4901 67.4459 53.298 67.6935 52.5579L68.6467 49.8045ZM90.4007 54.2479C91.639 54.2479 94.8237 53.3648 95.2454 53.3875C96.1871 53.4379 101.723 58.6188 102.334 59.3976L104.345 61.8389C103.557 62.2155 99.3817 62.8632 98.2095 63.1349C97.9508 62.6482 97.7484 62.38 97.3912 61.9133C97.1773 61.6334 97.1638 61.6629 96.9593 61.4177C94.9485 59.0075 95.036 58.9718 92.4919 56.424C92.0271 55.9585 91.9586 55.8779 91.4043 55.4702C90.3619 54.7032 90.5452 54.5226 90.4007 54.2479ZM43.7324 62.95C43.4256 62.8035 38.1902 61.8392 37.5964 61.8392C38.4045 60.3183 45.1261 53.5858 46.5264 53.5104C46.903 53.49 50.5021 54.3472 51.5413 54.4334C51.1058 55.0247 46.633 58.6365 43.7324 62.95ZM74.0388 49.6197C75.0833 49.3774 76.3324 49.3086 77.3854 49.0641C78.4947 49.8035 79.6419 50.6541 80.5912 51.6112C81.1508 52.176 81.5616 52.3186 82.0833 52.9023C82.4556 53.3186 83.214 54.1659 83.3355 54.6183C81.2509 54.6183 77.3835 55.1738 75.8983 55.1738C75.705 54.773 75.633 54.2856 75.4575 53.7608C75.105 52.704 74.1073 50.1507 74.0388 49.6197ZM66.044 55.1738C64.0226 55.1738 59.8596 54.6183 58.4205 54.6183C58.9459 53.8372 63.3313 49.636 63.9982 49.4341C65.5371 49.4341 66.3287 49.6197 67.9031 49.6197C67.5226 50.4093 67.2178 51.3834 66.862 52.2858C66.5644 53.0403 66.1131 54.3456 66.044 55.1738ZM57.305 54.4334C56.7513 54.4209 54.1097 54.0391 53.7723 53.8778C54.0689 53.4366 54.1986 53.4042 54.665 53.1006C56.5331 51.8862 59.3053 49.8789 61.3929 49.048C61.9706 48.8182 61.9436 49.0641 62.8827 49.0641C62.4831 49.6587 62.0529 49.797 61.5334 50.3122C60.7879 51.0517 59.5677 51.9161 58.6542 52.9997C58.1035 53.6539 58.0499 53.9368 57.305 54.4334ZM79.2446 48.6937C80.1425 48.6937 85.0185 51.505 86.1561 52.3648L88.1693 53.8778C87.3309 53.8962 85.2311 54.2521 84.4507 54.4334C83.1185 52.452 81.6607 51.5077 80.3173 50.2175C79.9566 49.8707 79.9164 49.9173 79.5843 49.6514C79.0596 49.2309 79.4032 49.2545 78.687 49.0641C78.9045 48.752 78.7133 48.6937 79.2446 48.6937ZM71.0638 45.9164C71.2718 46.6926 72.2356 47.5297 72.5513 48.8789H69.2047C69.7034 47.9401 70.2399 46.4654 71.0638 45.9164ZM52.4708 53.6923C51.821 53.6782 47.8302 52.9482 47.4507 52.7667C47.717 52.4048 49.0626 51.6034 49.5567 51.3461L54.3899 48.9382C58.2164 47.0967 57.906 48.46 60.0937 48.5082V48.8785C58.2902 49.2968 53.9422 52.7116 52.4708 53.6923ZM83.3351 47.5825C84.9931 47.5825 93.4047 51.5434 94.3053 52.7667C93.5995 52.7824 91.1808 53.3563 90.2101 53.5127C89.1169 53.688 89.3543 53.7139 88.5712 53.1075C86.9392 51.8436 82.6798 48.9172 80.9181 48.5085C81.3173 47.966 82.9935 47.5825 83.3351 47.5825ZM77.1995 47.7677C77.7014 47.8097 77.7054 47.8546 78.129 47.9532C78.1218 47.9578 78.3094 48.2853 77.607 48.1188C77.2502 48.0345 77.3881 48.0247 77.1995 47.7677ZM65.1138 47.5825L64.9166 47.7566C64.8603 47.7995 64.6724 47.9316 64.5914 47.988C64.0259 48.3836 64.4209 47.9339 63.9982 48.5082L63.2547 48.1378C64.0186 47.9608 64.3817 47.6435 65.1138 47.5825ZM76.8275 47.5825H76.6419L76.7966 47.3665L76.8275 47.5825ZM65.1138 47.5825V47.3976L65.3307 47.5517L65.1138 47.5825ZM65.4857 47.2125L65.541 47.2675C65.5377 47.2639 65.4673 47.2308 65.4857 47.2125ZM72.1793 46.2865C72.9506 46.3504 73.8084 46.9034 74.4134 47.2092C75.0777 47.5455 75.891 47.9454 76.2696 48.5082C75.2669 48.5082 74.8861 48.6934 73.4805 48.6934C73.3716 48.4672 73.3311 48.2797 73.2087 48.0381L72.1793 46.2865ZM69.576 46.2865C69.2136 46.9686 68.3966 48.3574 68.2744 48.8785C67.0773 48.8785 66.6 48.6934 65.2998 48.6934C65.8366 47.8946 68.7103 46.4871 69.576 46.2865ZM69.576 46.2865V46.1013L69.7932 46.2553L69.576 46.2865ZM75.154 45.9161C77.3664 45.9161 79.9809 46.5939 81.8473 47.0269L81.0738 47.3675C80.6597 47.4799 80.5458 47.4996 80.1682 47.5927C78.763 47.9398 76.6389 46.1013 75.154 46.1013V45.9161ZM61.5812 47.9529C60.7875 47.9529 59.3939 47.7775 58.9781 47.2125C60.3577 47.1816 63.5374 45.9161 66.6013 45.9161V46.1013C65.7731 46.1013 61.9903 47.9529 61.5812 47.9529ZM74.5961 45.7312C74.787 45.5411 75.2686 45.9971 74.812 45.8312C74.8077 45.8292 74.284 46.042 74.5961 45.7312ZM66.9729 45.7312L67.0285 45.7863C67.0249 45.783 66.9545 45.7499 66.9729 45.7312ZM27.5559 87.7592C27.5559 92.3206 28.4144 97.3205 29.8074 101.625C30.4844 103.716 32.1213 107.313 33.1366 109.048C35.1004 112.404 35.8993 113.294 38.1195 116.121C38.3453 116.409 38.5783 116.604 38.8512 116.873C39.897 117.905 39.6215 117.786 40.1468 118.361C40.4678 118.712 40.5079 118.672 40.8684 118.938L44.4447 122.042C45.0116 122.466 45.4464 122.805 46.0373 123.233C49.7914 125.953 52.8484 127.088 56.8741 128.735C60.2665 130.122 67.3034 131.083 70.8775 131.083C77.5645 131.083 83.741 129.454 88.3549 127.381C89.0077 127.087 89.4705 126.917 90.1512 126.577C90.8135 126.247 91.2549 126.049 91.85 125.677L95.197 123.64C97.4067 122.175 101.37 118.894 102.995 116.964C104.737 114.896 106.681 112.49 108.058 110.157C110.154 106.607 111.629 103.113 112.823 98.979C114.764 92.2596 114.597 83.9593 112.934 77.3539C112.37 75.1109 110.491 69.7888 109.29 67.8375C108.19 66.0492 107.833 65.1006 106.315 63.0238C105.909 62.4666 105.623 62.0968 105.2 61.5426C102.976 58.6267 101.324 57.2933 98.7214 54.8484L97.2806 53.691C96.779 53.3212 96.278 53.0023 95.7602 52.6132C92.9323 50.4879 88.8023 48.5154 85.3565 47.2354C75.6316 43.623 63.2444 44.0658 53.7714 48.3226C53.3994 48.4898 53.1364 48.5537 52.716 48.7527L49.3095 50.5446C47.1508 51.6548 44.8921 53.4399 42.9536 54.9539L40.1527 57.5345C37.8127 59.8643 34.8439 63.7039 33.256 66.5894C31.9135 69.03 30.7997 71.2963 29.9029 73.9886C28.4678 78.2959 27.5559 82.9324 27.5559 87.7592Z" fill="#000000"/>
<path fill-rule="evenodd" clip-rule="evenodd" d="M21.7938 47.7674C23.1339 47.7674 24.4997 47.4553 25.8865 47.3993L33.9635 46.5552C35.2433 46.3169 35.7861 45.4772 36.7795 44.7305C43.1209 39.9633 50.0282 36.3748 57.863 34.4357C63.6478 33.0039 60.7109 34.6566 66.2771 29.1137C67.0665 28.3279 67.7195 27.6775 68.5086 26.892C69.2495 26.1542 70.0635 25.1684 70.8796 24.624C71.2904 25.2349 79.53 33.4592 79.8869 33.6139C80.9043 34.0548 82.5176 34.1108 83.5995 34.3603C84.9379 34.6687 85.9978 35.0109 87.2151 35.3885C92.0581 36.8904 96.8982 39.0993 101.112 41.9162L103.739 43.7442C104.447 44.2828 106.985 46.5683 107.698 46.6516L116.02 47.437C116.472 47.5048 117.393 47.5887 117.994 47.693C120.832 48.1859 119.958 46.8375 119.594 52.0268L118.829 59.7912C118.639 61.4422 119.15 61.3134 119.903 62.8261C122.324 67.6913 124.214 73.3065 125.151 79.077L125.583 82.9048C125.824 84.488 125.42 90.3165 125.808 91.3834C126.106 92.2029 130.68 99.2917 131.644 100.754C131.92 101.171 132.294 101.722 132.423 102.2C131.837 102.509 131.458 102.811 130.93 103.121C130.409 103.426 129.949 103.683 129.411 104.015L123.423 107.681C122.029 108.527 121.632 108.404 120.969 110.051C120.255 111.824 119.435 113.239 118.541 114.854C117.404 116.908 116.04 118.743 114.65 120.606C114.254 121.138 114.015 121.484 113.598 121.966C111.566 124.322 110.044 125.903 107.743 128.17L103.738 131.403C101.978 132.737 102.565 132.024 101.686 134.173C100.681 136.629 99.3436 140.379 98.4657 143.001C98.2511 143.642 98.0875 144.268 97.8396 144.784C96.9644 144.366 95.9308 144.068 94.9778 143.745C94.3528 143.533 94.2612 143.442 93.6358 143.23L86.3823 140.64C84.928 140.141 82.2019 141.136 80.0366 141.497C73.2512 142.632 65.1244 142.535 58.4591 140.859C56.0279 140.248 55.7043 140.385 52.6585 141.636C50.9709 142.33 45.1341 144.572 43.9198 144.598C43.854 143.811 39.8855 132.833 39.4168 132.42C37.2749 130.532 36.1084 130.249 32.8099 126.964C31.8154 125.974 30.7397 125.071 29.8369 124L28.1608 121.966C27.7928 121.578 27.4878 121.123 27.1858 120.715C26.8427 120.252 26.5178 119.855 26.1447 119.345C25.7652 118.825 25.5257 118.421 25.1778 117.901C23.5271 115.435 22.0717 112.863 20.8657 110.16C20.2154 108.703 19.6616 108.666 18.337 107.864L10.8294 103.306C10.3009 102.996 9.92183 102.693 9.33657 102.385C9.63305 101.279 13.4547 95.6308 14.2318 94.2993C14.5311 93.7864 14.7522 93.3875 15.0607 92.9033C15.3316 92.4782 15.7382 92.0164 15.9142 91.5313C16.3837 90.2398 15.8779 83.799 16.3267 81.2036C16.4511 80.4855 16.4866 79.8742 16.5879 79.2419C16.7881 77.9927 17.0206 76.6131 17.2919 75.4997C18.1263 72.0727 19.0829 68.832 20.4913 65.7253L21.916 62.7003C22.3837 61.8598 23.2523 60.9394 23.0261 59.6955C22.6815 57.8003 22.5663 55.6655 22.366 53.8624C22.3261 53.5045 22.3769 53.1383 22.3375 52.7801C22.1715 51.2838 21.7938 49.2889 21.7938 47.7674ZM34.2512 45.3605C31.2733 45.3605 23.4776 46.6565 20.4924 46.6565C20.4924 50.1477 21.3599 54.0538 21.607 57.5814C21.932 62.2204 21.225 60.7329 18.8191 66.6526C15.7675 74.1613 14.7288 80.8369 14.7288 90.1661C14.7288 90.6407 14.7734 90.6135 14.9145 90.9065L13.1311 93.7592C11.3133 96.7367 9.29519 99.6851 7.66309 102.756L10.6433 104.602C11.7232 105.235 12.6875 105.821 13.7593 106.499C14.7848 107.147 15.8074 107.661 16.7738 108.311L19.0913 109.706C19.8022 110.205 19.3485 109.752 19.645 110.451C22.6648 117.561 26.7481 122.593 31.974 127.797C32.4215 128.242 32.7348 128.556 33.1801 129.002C33.7084 129.532 34.0366 129.671 34.5751 130.205C35.4237 131.047 36.426 131.694 37.3812 132.41C39.2042 133.776 38.477 133.065 39.3457 135.268C39.8464 136.537 40.2368 137.617 40.6861 138.932L42.0366 142.586C42.2806 143.237 42.4076 143.7 42.6759 144.356C42.9498 145.025 43.0775 145.676 43.3615 146.265C44.9053 145.528 46.5265 145.195 48.1377 144.541C49.4442 144.011 55.6368 141.637 56.3768 141.637C56.7948 141.637 57.5756 141.888 57.9008 141.971C59.6717 142.418 61.2913 142.714 63.076 142.927C68.3601 143.558 73.4184 143.569 78.6943 142.939C80.1729 142.762 84.5469 141.637 85.5676 141.637C86.0966 141.637 94.1055 144.702 95.2593 145.131C96.3962 145.553 97.3936 145.99 98.5826 146.265C99.5993 144.156 101.407 138.133 102.487 135.527C103.282 133.609 102.706 133.701 104.398 132.43C104.938 132.025 105.214 131.789 105.759 131.379L107.09 130.298C109.115 128.396 111.703 126.314 113.346 124.122C115.337 121.463 116.655 120.144 118.626 116.975C119.925 114.886 121.055 112.794 122.134 110.471C122.772 109.097 123.332 109.063 124.738 108.25L127.07 106.869C129.399 105.397 131.823 104.085 134.095 102.571C133.029 100.563 128.926 93.8359 127.323 91.5359C126.728 90.681 127.03 89.7505 127.03 87.7589C127.03 83.678 126.468 79.3566 125.715 75.5528C124.777 70.818 123.048 66.4956 120.957 62.3315C120.174 60.7733 119.91 60.9817 120.134 59.0459C120.499 55.9061 120.784 49.697 121.452 46.8417L108.824 45.5309C107.711 45.4179 107.376 45.1261 106.543 44.4689C102.819 41.5288 98.6668 38.5119 94.2316 36.733C93.0331 36.2525 92.0815 35.789 90.9334 35.3888C88.1206 34.4071 84.9353 33.2461 82.0162 32.7892C81.2631 32.6714 80.5965 32.6851 80.1176 32.273C79.3582 31.6202 78.5448 30.6853 77.8046 29.9479C76.3552 28.5047 71.9964 23.8273 70.6926 22.9583C69.763 24.3408 63.4716 30.2296 61.6336 32.0818C60.9436 32.7771 59.7672 32.7533 58.8297 32.9924C57.8923 33.2314 56.862 33.4605 55.8544 33.7326C54.9663 33.9718 53.8685 34.3124 53.0058 34.5989C47.7464 36.344 42.8556 38.8705 38.3385 42.0257C37.4063 42.677 34.8881 44.4132 34.2512 45.3605Z" fill="#000000"/>
<path fill-rule="evenodd" clip-rule="evenodd" d="M4.68738 29.994C4.68738 26.2715 10.4512 25.7171 10.4512 30.1789C10.4512 32.1113 7.6617 33.7287 5.65714 31.9905C5.30878 31.6885 4.68738 30.5306 4.68738 29.994ZM107.135 6.48035C107.135 4.7289 107.741 3.14774 109.924 3.14774C111.219 3.14774 112.713 4.27955 112.713 5.5548C112.713 7.15757 112.318 8.88742 109.924 8.88742C108.487 8.88742 107.135 7.81319 107.135 6.48035ZM70.5064 3.33286C74.8699 3.33286 74.1312 8.10337 71.9228 8.81678C70.7227 9.20422 69.5568 8.91862 68.8073 8.17227C68.5018 7.8679 68.2138 7.3368 68.0778 6.85756C67.9004 6.23245 67.9044 5.88622 68.1173 5.21339C68.3685 4.41843 69.4268 3.33286 70.5064 3.33286ZM65.3003 6.11016C65.3003 7.63439 65.6697 8.20259 66.2302 9.25764L64.0413 11.5215C63.5956 11.987 63.5202 12.2414 63.0248 12.7309C60.5258 15.2021 57.7595 18.5329 55.4 20.8759L48.8749 27.8939C48.207 28.4128 33.0963 28.1425 31.0893 28.1425C25.0157 28.1425 18.942 28.1425 12.8682 28.1425C12.611 27.042 11.6349 25.9299 10.8278 25.3604C9.2051 24.2157 6.95337 24.0598 5.17807 24.928C1.69231 26.6324 1.09062 31.1461 3.61627 33.6526C4.08616 34.1191 4.48771 34.5072 5.05984 34.8071C8.30762 36.5086 13.0543 34.2472 13.0543 30.3642H49.3107C49.8377 30.3642 51.4187 28.6136 51.762 28.1767C52.0053 27.8669 51.9256 27.8819 52.2364 27.5378C52.4681 27.2817 52.6396 27.1404 52.8894 26.8921C53.2956 26.4889 53.7423 26.108 54.0968 25.6876C55.3987 24.1422 57.2153 22.2364 58.6564 20.7856C59.8915 19.5422 61.6337 17.431 63.2095 15.8771C63.4175 15.6717 63.5834 15.5352 63.7648 15.3194C64.064 14.9644 63.9879 14.9469 64.3214 14.5778L67.9031 10.9238C68.5564 10.9238 69.068 11.6645 70.8781 11.6645C73.568 11.6645 76.0677 9.45824 76.2701 7.03567C77.2129 7.03567 77.2833 6.85035 78.3156 6.85035H104.532C104.532 9.03374 106.926 11.4792 109.552 11.4792C111.481 11.4792 112.545 11.267 113.972 9.77111C117.544 6.02707 114.179 0.555786 110.481 0.555786C106.57 0.555786 105.77 2.05868 104.532 4.62883H76.0845C75.8261 1.53715 69.9366 -1.74576 66.3635 2.91031C65.6897 3.78811 65.3003 4.87368 65.3003 6.11016Z" fill="#000000"/>
<path fill-rule="evenodd" clip-rule="evenodd" d="M26.9981 87.7589C26.9981 84.7826 27.5547 81.0581 28.099 78.3018C29.3701 71.8633 32.8294 65.3562 36.8193 60.3245L39.3174 57.4427C39.8822 56.7721 43.14 54.0348 44.1545 53.1872L51.7256 48.5071L55.3873 46.9692C64.5898 43.2673 77.0073 43.3279 86.2355 46.9158C89.3583 48.1299 90.3912 48.5914 93.3807 50.3535C94.4656 50.9927 95.5983 51.7099 96.6473 52.4703L98.8182 54.1964C100.3 55.4206 101.834 56.6737 103.009 58.1697C104.256 59.7584 105.389 60.6021 107.171 63.2821C110.49 68.2708 112.194 72.3494 113.643 78.1301C115.385 85.0852 114.96 92.6818 113.119 99.4589C111.75 104.5 108.684 110.943 105.32 114.835C103.833 116.555 103.769 116.751 101.974 118.539L99.1865 121.133C97.2879 123.016 91.8642 126.309 89.039 127.506C83.0524 130.041 77.9935 131.453 71.0635 131.453C56.0894 131.453 43.3625 124.009 36.1389 114.39C35.7114 113.82 35.3588 113.398 34.9553 112.791C31.3744 107.407 29.8032 104.047 28.1877 97.6827C27.756 95.9812 27.4006 93.5543 27.1976 91.8187L27.0119 89.2267C26.9627 88.8097 26.9981 88.1961 26.9981 87.7589ZM25.8826 86.2776C25.8826 92.926 26.3135 96.702 28.4128 102.828L29.9718 106.645C30.7007 108.257 32.8802 112.091 33.9279 113.444C36.0494 116.184 36.0408 116.481 38.8513 119.28C42.2555 122.669 44.4896 124.371 48.7487 126.828C53.1483 129.366 56.3468 130.387 61.3949 131.638C66.5237 132.91 74.7252 132.893 79.9135 131.75C80.6995 131.577 81.4333 131.439 82.1851 131.235C84.5617 130.59 87.823 129.509 90.091 128.369C91.3889 127.717 92.3929 127.227 93.6216 126.515C96.2336 125.004 96.9647 124.399 99.1056 122.719C100.654 121.505 103.517 118.887 104.669 117.52L107.694 113.682C109.224 111.51 110.385 109.406 111.659 106.892C112.272 105.683 112.784 104.336 113.246 103.103C114.43 99.9404 114.867 97.8495 115.426 94.5357C116.791 86.4415 115.432 77.8623 112.414 70.4663C110.874 66.6919 108.893 63.4007 106.357 60.2052L105.138 58.6424C104.896 58.3762 104.723 58.2661 104.482 57.9996C103.582 57.0074 103.095 56.2942 101.791 55.1246C101.42 54.792 101.402 54.8683 101.046 54.5704L96.4005 50.8649C93.908 48.95 88.4955 46.355 85.5426 45.3841C76.9079 42.5449 69.5448 42.2836 60.6938 44.1071C55.2648 45.2251 50.0406 47.7765 45.4794 50.8039C43.9092 51.8462 40.7588 54.3236 39.3154 55.7746C35.3983 59.7122 32.788 63.4574 30.2216 68.5665C28.0655 72.8587 25.8826 79.942 25.8826 86.2776Z" fill="#000000"/>
<path fill-rule="evenodd" clip-rule="evenodd" d="M128.889 32.9558C127.966 32.9558 127.321 32.8725 126.616 32.2565C125.156 30.9803 125.623 28.2589 127.335 27.521C130.316 26.2371 132.78 29.7609 130.743 32.0251C130.34 32.4723 129.533 32.9558 128.889 32.9558ZM71.2505 17.7741H116.06L123.869 27.0313C123.869 27.2297 121.6 31.1427 124.839 34.2115C129.367 38.5021 136.278 32.7754 133.536 27.5878C133.236 27.0183 132.846 26.6166 132.377 26.15C130.563 24.3469 127.98 24.1786 125.728 25.3651C125.24 25.0403 124.954 24.7219 124.613 24.2543L122.456 21.7731C122.002 21.165 121.748 21.0237 121.34 20.4771C120.903 19.891 120.685 19.7763 120.302 19.2895L116.989 15.3671H71.2505V17.7741Z" fill="#000000"/>
<path fill-rule="evenodd" clip-rule="evenodd" d="M23.8381 2.59196C27.5386 2.59196 28.1981 8.33165 23.6524 8.33165C21.4098 8.33165 20.2577 5.12025 21.9237 3.46278C22.2241 3.16386 23.3612 2.59196 23.8381 2.59196ZM18.446 5.36926C18.446 7.53017 19.55 9.39041 21.2927 10.3107C25.4165 12.4875 29.0523 9.16168 29.23 7.03565C30.8893 7.03565 31.8157 6.85033 33.5065 6.85033H55.2604V4.62858H29.416C29.2025 2.07479 26.7841 0 23.8381 0C20.9962 0 18.446 2.5392 18.446 5.36926Z" fill="#000000"/>
<path fill-rule="evenodd" clip-rule="evenodd" d="M13.6135 18.6999C20.0745 18.6999 25.9263 18.5146 32.3925 18.5146H52.1012V16.2928H13.6135V18.6999Z" fill="#000000"/>
<path fill-rule="evenodd" clip-rule="evenodd" d="M46.1501 87.7593C46.1501 91.9732 49.8342 94.2394 53.959 94.2394H58.4215V92.2026C54.9534 92.2026 49.3441 92.9847 48.3812 88.8701H58.4215V86.8333H48.3812C49.2874 82.9596 54.8085 83.6856 58.4215 83.6856V81.6492C54.6986 81.6492 51.3707 81.2398 48.6742 83.0517C47.3605 83.9341 46.1501 85.6608 46.1501 87.7593Z" fill="#000000"/>
<path fill-rule="evenodd" clip-rule="evenodd" d="M42.6159 134.046C41.8986 133.986 41.8838 133.861 40.9424 133.861C42.1856 136.2 42.0474 133.612 41.8723 135.712C43.7686 135.712 46.1485 135.694 46.1485 138.489V138.859C46.1159 138.881 44.8953 140.164 44.1034 139.415C44.0178 139.334 43.581 138.636 44.2893 138.119C44.4934 138.879 44.6179 138.859 45.4049 138.859C45.5089 138.711 45.7769 138.403 45.7769 138.304C45.7769 137.719 44.9082 136.823 44.475 136.823C44.0366 136.823 43.6478 137.186 43.3595 137.378C42.5481 136.837 42.5184 136.362 41.3143 136.082C41.6738 136.759 41.8509 137.206 42.1843 137.993C42.4595 138.643 42.8772 139.433 43.3595 139.785C42.9615 140.377 43.0543 139.915 42.9878 140.711C43.7864 140.645 44.1399 140.526 45.2189 140.526C44.8315 141.052 44.4638 141.097 43.7314 141.266C43.9388 142.039 43.8147 141.659 44.475 142.007C44.109 142.767 44.2242 142.894 44.2893 143.673C45.1932 143.598 45.2541 143.196 45.5909 142.562C46.108 142.809 45.951 142.747 46.7064 142.747C46.3368 142.052 46.3348 142.14 46.3348 141.081C47.0451 141.599 47.0004 142.283 47.6363 142.747C48.2077 142.331 47.9365 142.867 48.0083 142.007C50.6854 142.007 50.5425 141.266 52.2845 141.266C51.7275 140.509 50.8226 140.526 49.8674 140.526C49.8674 137.792 47.4503 139.108 47.4503 139.6C47.4503 140.759 48.795 140.189 48.9375 140.156C48.7186 140.569 48.6278 140.713 48.3799 141.081H47.45C47.1393 140.619 46.4401 139.853 47.3078 138.903C48.4793 137.62 50.9678 138.399 52.0982 140.526C52.5093 140.241 52.3292 140.496 52.4701 139.97C53.1871 140.03 53.2022 140.156 54.1436 140.156C53.1943 138.369 53.0718 140.004 53.2137 138.304C50.9109 138.304 49.8842 137.903 47.6027 136.671C47.368 136.544 47.3835 136.502 47.0066 136.339C46.0688 135.934 45.5004 135.836 44.6939 135.309C43.8976 134.789 43.4282 134.319 42.9878 133.49C42.6801 133.703 42.6303 133.529 42.6159 134.046Z" fill="#000000"/>
<path fill-rule="evenodd" clip-rule="evenodd" d="M88.3562 138.304C88.7673 140.062 87.741 138.615 87.6123 140.156C88.2947 140.14 88.6426 140.004 89.0995 139.785C89.1716 140.645 88.9003 140.109 89.4718 140.526C91.1857 137.3 94.6775 138.05 94.6775 139.785C94.6775 140.96 93.9514 141.081 93.19 141.081C92.7921 140.49 92.8849 140.952 92.8184 140.156C93.0528 140.268 93.1222 140.404 93.5301 140.321C95.7072 139.875 91.7029 137.002 91.7029 140.526C89.5113 140.526 90.6143 140.631 89.4718 140.896V141.266C91.0639 141.266 91.535 142.007 93.562 142.007C93.7335 142.647 93.663 142.577 94.3059 142.748C94.4089 141.51 94.8016 142.007 95.0495 141.081C95.7388 141.584 95.14 141.664 95.0495 142.748C95.5515 142.706 95.5554 142.661 95.9794 142.563C97.1404 144.289 97.4985 143.504 97.4666 143.303L97.249 141.828C97.8408 141.673 97.6891 141.825 97.8385 141.266C97.1525 140.939 96.9949 141.148 96.537 140.526L98.5874 140.649C98.5156 139.915 98.6084 140.377 98.2105 139.785C98.6898 139.436 99.0686 138.699 99.3273 138.121C99.6585 137.38 99.8827 136.784 100.255 136.082C99.0653 136.181 99.0285 136.833 98.2102 137.379C97.4179 136.85 96.8175 136.192 95.7928 138.119L96.1749 138.855C96.934 138.866 97.2016 138.876 97.2806 137.934C97.6664 138.201 97.6522 137.868 97.6522 138.86C97.6522 140.205 95.4211 139.717 95.4211 137.934C95.4211 136.187 97.96 135.309 99.6977 135.712C99.6812 134.985 99.7487 135.278 99.512 134.787C100.424 134.575 100.252 134.566 100.628 133.861C99.8448 133.861 99.8761 133.783 99.3257 134.046C98.9149 133.762 99.0946 134.016 98.9541 133.49C98.2026 133.69 98.5624 133.755 97.9834 134.375C97.6463 134.737 97.3787 134.928 96.9494 135.197C95.8556 135.884 94.9682 136.079 94.3102 136.457C93.9958 136.638 94.0518 136.642 93.7197 136.795L91.7045 137.751C90.6614 138.227 89.8901 138.304 88.3562 138.304Z" fill="#000000"/>
<path fill-rule="evenodd" clip-rule="evenodd" d="M26.6266 48.3233C26.0867 47.9631 26.3773 47.9487 25.697 47.7677L25.5728 49.8098C25.0657 49.5096 25.1391 49.9616 25.1391 48.3233C24.3985 48.3849 24.5325 48.3981 24.2094 48.8789C23.6136 48.482 23.5685 48.3233 22.5359 48.3233C22.5486 48.9005 22.5304 49.2581 23.2795 49.8046C22.519 51.2356 22.971 50.7305 24.3951 50.7305C24.2457 51.2877 24.1207 51.471 22.7216 51.471C22.7822 52.1947 22.609 52.0334 23.2795 52.2114C22.9957 53.4245 23.0938 54.9802 23.0938 56.4699C23.7879 56.0071 24.1207 55.4951 24.2094 54.4334C24.9545 54.6062 24.4868 54.6186 25.5109 54.6186C25.5919 54.498 27.4328 52.3969 25.1391 52.3969L24.7673 53.5078C24.1531 53.0981 24.2094 53.2161 24.2094 52.2114C26.5423 50.6558 27.7151 53.6481 25.8445 55.5059C25.1384 56.2077 24.6963 56.2444 23.8374 56.6551C23.9843 57.2028 23.9131 56.955 24.2094 57.3956L23.8234 57.9367C23.7023 58.2058 23.6874 58.2629 23.6517 58.6916C24.3828 58.5221 24.4062 58.4877 24.7673 57.9511C25.1912 58.0491 25.1949 58.0944 25.697 58.136C25.8693 56.0743 27.5309 54.5324 29.013 52.7362L29.8326 51.7007C30.69 50.7063 29.8315 51.3504 31.3224 50.2221C31.778 49.877 32.0705 49.6767 32.7622 49.6194V49.0638C32.2792 48.9359 32.5549 49.1326 32.3904 48.6934C32.7589 48.2709 32.8082 48.1817 32.9484 47.5825C32.1189 47.6514 32.0035 47.7923 31.6466 48.323C31.2044 48.028 31.4528 48.0991 30.9031 47.9529C30.8249 51.4418 26.4408 53.1318 26.4408 49.8042V49.4342C27.1079 49.0825 27.4747 48.7504 28.1142 49.6194C27.2362 49.6921 27.3194 49.756 26.9987 50.3598C27.0586 50.4729 27.1131 50.6079 27.1957 50.7191L27.5565 51.1006C29.2701 50.9587 29.5243 50.1327 28.858 48.8786C29.6316 48.4708 30.4689 48.1394 30.7174 47.2122C30.0977 47.5085 29.4258 47.5317 28.5922 47.6881C27.5997 47.8746 27.3424 47.9461 26.6266 48.3233Z" fill="#000000"/>
<path fill-rule="evenodd" clip-rule="evenodd" d="M70.1359 27.2167C69.4055 27.2328 69.6998 27.1659 69.2063 27.4016C69.5796 28.429 69.2373 27.0065 70.1359 28.6978C68.94 28.5988 68.9417 27.9984 68.0908 27.772C68.0908 29.2226 68.1323 28.4787 67.1247 29.2167C66.9111 29.3733 66.8558 29.4831 66.6359 29.6563L64.7441 31.2897C67.675 31.2897 66.5717 30.139 67.7188 31.8453C68.915 31.8453 69.1948 31.9914 69.7643 30.9195L69.3821 30.1843C68.4005 30.1697 68.7475 30.2966 68.0911 30.7342C68.0911 29.3438 68.2603 29.4382 69.5783 29.4382C70.8703 31.3595 69.944 32.5857 67.3472 32.5857C66.1517 32.5857 65.8653 32.0623 64.9301 31.8451V32.5857C63.9989 32.5857 63.8468 32.5921 63.4426 33.1413C64.044 33.281 64.2583 33.456 64.9301 33.5114V34.2522C65.5595 34.085 66.308 33.3265 68.0911 33.3265C71.9684 33.3265 73.8163 32.8601 76.4579 34.2522C76.6261 33.9146 76.6014 34.0208 76.6442 33.5114C77.214 33.4642 77.5379 33.3364 77.9454 33.1413C77.5415 32.5923 77.3894 32.5857 76.4582 32.5857C76.7018 32.0611 76.7018 32.3699 76.4582 31.8451C75.0171 32.6045 72.4315 33.3177 71.4832 31.4201C71.0006 30.4536 71.5628 30.0823 71.9957 29.4382H73.1116C73.4253 30.0895 73.4338 30.0919 73.2975 30.7342C73.2686 30.7011 73.2324 30.5971 73.2189 30.6276C73.0454 31.0185 73.3815 29.5015 71.81 30.5493C71.81 32.1636 73.8463 32.3396 74.2271 30.9195C75.2916 30.9431 74.6596 31.0009 75.4161 31.2169C75.8506 31.341 76.3614 31.2897 76.8302 31.2897C76.5336 30.8866 76.4783 30.9331 76.0099 30.6258C74.9684 29.9432 74.5991 28.9998 73.2979 28.6978L73.3907 27.772C72.2771 28.0435 72.8008 28.5849 71.4384 28.6978C71.6316 27.9783 71.9608 28.0075 72.368 27.4016C71.8746 27.1659 72.1692 27.2328 71.4384 27.2167C71.42 26.391 71.1672 26.0897 70.8805 25.5503C70.2314 25.9833 70.1359 26.156 70.1359 27.2167Z" fill="#000000"/>
<path fill-rule="evenodd" clip-rule="evenodd" d="M124.241 94.2397C125.072 97.7895 124.034 97.9186 123.513 101.106C123.062 103.871 122.651 103.841 121.638 105.348C121.977 105.516 121.871 105.491 122.382 105.533C122.096 106.721 122.119 105.891 122.382 107.014H122.754C122.984 106.154 123.046 106.851 123.125 105.904H124.055C123.775 104.706 123.683 105.35 123.683 103.682C123.683 102.247 124.841 100.062 127.216 101.645V102.941C126.104 103.527 126.521 103.31 125.729 103.126C125.762 103.098 125.816 103.012 125.831 103.044C125.839 103.06 126.472 102.746 126.472 101.831C125.004 101.057 124.613 102.604 124.613 102.942C124.613 103.594 125.357 103.687 125.357 104.052C125.357 104.762 124.57 104.558 124.427 106.274C124.804 106.138 124.622 106.22 124.905 106.009L126.178 105.055C126.847 104.61 127.362 104.109 127.774 103.497C128.267 103.732 127.973 103.666 128.703 103.682C128.471 102.687 128.145 102.969 128.145 101.645C128.719 102.027 128.895 102.17 129.075 102.942C129.558 102.62 129.571 102.753 129.633 102.016C131.209 102.016 130.736 102.112 131.307 101.83C130.851 100.131 130.005 101.857 130.005 99.7935C129.207 100.006 129.548 100.264 128.518 100.349C128.809 99.2632 129.517 99.5133 129.819 98.6827C129.326 98.447 129.62 98.5139 128.889 98.4975C128.847 96.6151 127.53 96.1418 127.402 94.6094C126.944 94.9434 127.02 94.7461 126.959 95.6226C126.938 95.9346 127.03 96.3794 127.03 97.0163C125.781 97.6132 126.837 97.0179 125.729 97.7567C125.729 99.0154 125.682 99.0937 126.658 99.6083C127.473 99.0652 127.446 98.9098 127.03 98.1271C127.551 98.1386 127.477 98.0193 127.812 98.2749C128.567 98.8522 127.769 99.709 127.588 99.9784C126.59 99.9784 125.951 100.133 125.319 99.0905C124.634 97.9606 125.425 95.4243 126.658 94.9795C126.24 94.4108 126.778 94.6809 125.914 94.6094V93.1282C124.586 93.4815 125.986 94.201 124.241 94.2397Z" fill="#000000"/>
<path fill-rule="evenodd" clip-rule="evenodd" d="M15.6561 94.795C15.0802 94.8439 15.3045 94.7924 14.9123 94.9799C15.2193 95.4362 16.933 97.0728 16.4881 98.7562C15.5024 102.487 11.2619 98.3894 14.7264 98.3124L14.1685 99.0532L14.5504 99.7884C15.2681 99.7989 15.8418 99.5036 15.8418 98.6828C15.8418 97.7647 15.4054 97.4582 14.5401 97.3868C14.5401 95.1916 14.7295 95.389 14.1683 94.9796C13.7516 96.7601 12.6807 96.8997 12.6807 98.8677C11.9581 98.7153 12.4738 98.7153 11.751 98.8677C12.0652 100.04 11.7683 98.533 13.2384 100.719C11.6691 100.355 12.5484 100.24 11.5649 99.9785V101.089C10.7038 101.161 10.3348 101.345 10.2634 102.2C11.0895 102.269 11.1366 102.583 11.9369 102.2C11.9984 102.938 12.012 102.804 12.4948 103.126C12.8451 102.467 12.6971 102.209 13.4245 102.015C13.3976 103.226 13.1276 103.115 12.9969 103.473C12.6853 104.329 13.3303 103.867 13.7963 103.867L15.3583 105.274C15.6686 105.498 15.9876 105.661 16.2471 105.87C16.7712 106.293 16.4242 106.268 17.143 106.459C16.9937 104.67 16.3119 105.229 16.2133 104.052C18.4837 103.448 15.0977 100.359 15.0977 102.571V102.941C15.4369 103.108 15.3303 103.084 15.8416 103.126C15.2843 103.925 14.3539 103.653 14.3539 102.386C14.3539 101.132 17.8868 100.05 17.8868 104.607C17.8868 105.278 17.7307 105.641 17.515 106.089H18.4447C18.4964 106.705 18.6078 106.99 19.1885 107.199C19.5537 106.552 19.3429 106.378 19.1885 105.718C19.7641 105.669 19.5399 105.721 19.9321 105.533C19.3505 104.668 19.6012 105.466 18.7508 103.747C18.1894 102.613 17.8653 100.298 17.4809 98.9021C16.7846 96.3726 16.794 96.7112 17.3291 94.4243H16.3995C16.3333 93.635 16.2983 93.4842 15.6556 93.3135C15.6226 93.7107 15.5479 93.8461 15.5484 94.0543C15.5488 94.2624 15.6231 94.3971 15.6561 94.795Z" fill="#000000"/>
<path fill-rule="evenodd" clip-rule="evenodd" d="M112.712 48.8786C112.649 49.6295 112.526 49.3395 112.526 50.545C113.436 51.1517 113.436 51.5136 114.571 50.9154C114.571 50.1576 114.599 49.8839 113.641 49.8046V49.4342C114.313 49.2742 115.315 49.11 115.315 50.175C115.315 52.5491 110.853 52.3416 110.853 48.1382C110.053 48.2044 110.517 48.1119 109.923 48.5085C109.729 47.7842 109.469 47.9313 108.807 47.5826C108.826 48.4155 108.873 48.52 109.365 48.8786L108.776 49.5909C110.84 50.1065 111.754 52.0033 112.969 53.2508C113.536 53.832 113.092 53.6094 113.778 54.2968C114.208 54.7268 114.337 54.9277 114.707 55.4089C115.321 56.2084 115.873 56.9813 115.873 58.3209C117.099 58.2193 115.892 57.8092 117.918 58.8765C117.899 58.0433 117.852 57.939 117.36 57.5804L117.95 56.8682C117.113 56.6519 116.301 56.1379 115.788 55.6275C113.77 53.6196 115.144 51.1524 117.36 52.2111C117.444 52.5268 117.939 53.3898 116.802 53.692C116.777 52.5697 116.508 52.5812 115.687 52.5812C115.092 53.7005 115.314 55.0926 117.36 54.618C117.812 55.5545 117.456 56.3339 118.662 56.6548C118.056 55.3984 119.138 54.1575 118.29 52.3963C118.933 52.2255 118.862 52.296 119.034 51.6559C117.692 51.6559 118.106 51.5018 117.174 51.2855V50.9151C117.98 50.9151 118.089 50.8266 118.662 51.1003C118.645 50.3615 118.576 50.4149 118.29 49.9894C119.005 49.5129 119 49.448 119.22 48.5085C118.224 48.5085 117.996 48.7295 117.361 49.0641C117.177 48.558 117.37 48.6832 116.617 48.5085C116.617 49.3926 116.49 49.2759 116.431 49.9894C115.521 49.3257 115.965 48.3548 116.059 47.953C115.202 48.0238 115.552 48.1024 114.943 48.5085C114.648 48.2525 114.724 48.2696 114.233 48.1044C112.886 47.6501 111.921 47.8192 111.039 47.3977C111.188 48.0379 111.145 47.9959 111.586 48.3335C111.928 48.5951 112.197 48.7593 112.712 48.8786Z" fill="#000000"/>
<path fill-rule="evenodd" clip-rule="evenodd" d="M23.4663 96.4611C25.522 97.0072 26.0585 101.46 21.9789 101.46C20.7363 101.46 19.5616 100.143 19.5616 98.8677C19.5616 97.8676 19.9628 97.4756 20.3054 96.8312C19.6253 96.6506 19.9157 96.6358 19.3755 96.2756C17.5367 97.5018 17.7577 102.103 22.0019 102.732C22.8436 102.857 22.7218 102.628 22.9911 103.414C23.7244 105.554 24.7798 108.148 25.7598 110.099C28.5115 115.577 27.8587 114.179 29.0437 113.864C28.9848 113.159 29.04 113.475 28.4101 112.459C27.215 110.529 24.5503 104.637 24.0235 102.385C27.8951 100.345 26.3655 95.7512 23.8374 95.1644C23.6769 95.8505 23.5313 95.6823 23.4663 96.4611Z" fill="#000000"/>
<path fill-rule="evenodd" clip-rule="evenodd" d="M115.314 98.4979C115.314 100.257 116.217 101.847 117.545 102.2C117.486 104.831 113.926 111.044 112.525 113.68C112.926 113.947 113.072 114.103 113.64 114.235C114.12 113.333 114.661 112.583 115.128 111.643C116.093 109.703 118.357 104.85 118.847 102.756C120.111 102.756 121.165 102.331 121.938 101.762C123.006 100.975 123.309 99.8673 123.309 98.4979C123.309 97.3474 122.778 96.8413 122.379 96.091L121.407 96.9747C122.745 98.8922 121.855 101.46 119.404 101.46C116.574 101.46 115.329 97.8355 118.289 96.2762L117.723 95.1693C116.527 95.4853 115.314 96.9554 115.314 98.4979Z" fill="#000000"/>
<path fill-rule="evenodd" clip-rule="evenodd" d="M20.4917 89.7957C20.4917 92.076 21.2355 96.4965 21.2355 96.8311C21.2355 97.4316 20.1919 97.7214 20.4431 99.0977C20.8418 101.283 24.2104 101.476 24.2104 98.3123C24.2104 97.6106 23.3576 97.0216 22.537 96.8311C22.537 95.2955 21.9791 93.8116 21.9791 91.2769C21.9791 88.9231 21.8915 84.3529 22.3508 82.3899C20.2077 82.3899 21.094 81.8526 20.8497 84.0422C20.7881 84.5925 20.7006 84.4031 20.6705 85.1599C20.6395 85.945 20.7592 86.7595 20.6377 87.534C20.5195 88.285 20.4917 88.7825 20.4917 89.7957Z" fill="#000000"/>
<path fill-rule="evenodd" clip-rule="evenodd" d="M119.405 82.3899C119.405 86.7635 120.165 88.0831 119.577 93.3C119.462 94.3197 119.056 95.8065 119.033 96.8315C116.375 97.448 117.248 100.795 119.382 100.679C120.362 100.626 121.264 99.849 121.264 98.6828C121.264 97.7532 120.733 97.6083 120.334 97.0163C120.354 96.1346 120.734 94.8363 120.852 94.0142C121.258 91.1803 121.097 88.3053 120.891 85.5382L120.707 82.2047C119.985 82.2644 120.221 82.3702 119.405 82.3899Z" fill="#000000"/>
<path fill-rule="evenodd" clip-rule="evenodd" d="M96.5366 132.379C96.2753 131.888 96.0541 131.575 95.7927 131.083C96.7683 130.824 96.5679 130.343 97.8385 130.343L98.2101 130.898C97.7101 131.839 98.0215 131.389 96.5366 132.379ZM97.6522 129.232V129.417L97.4352 129.262L97.6522 129.232ZM95.0491 130.343C94.8184 129.482 94.7565 130.179 94.6771 129.232C96.0833 128.858 95.8885 127.662 96.7226 129.232L96.035 129.843C95.5912 130.203 95.6755 130.197 95.0491 130.343ZM97.6522 129.232C97.6522 125.598 94.3513 128.334 93.0037 129.232L96.165 133.861C97.7009 132.836 100.058 131.883 99.1518 130.147C98.8223 129.516 98.3977 129.405 97.6522 129.232Z" fill="#000000"/>
<path fill-rule="evenodd" clip-rule="evenodd" d="M69.3929 136.267C69.3929 135.334 70.1036 135.897 70.8801 135.897H71.438V137.007H69.3929V136.267ZM68.2774 136.452C68.2774 138.02 68.0911 138.808 68.0911 140.34H69.3929V138.119C71.7682 138.171 70.0884 140.526 72.9255 140.526C72.839 139.489 71.8745 138.583 71.438 137.933C73.4081 137.477 73.1303 134.786 71.0664 134.786H68.2774V136.452Z" fill="#000000"/>
<path fill-rule="evenodd" clip-rule="evenodd" d="M41.8737 128.491H41.6877L41.8427 128.275L41.8737 128.491ZM41.502 125.529C42.0294 125.529 42.7502 126.469 42.9895 126.825C42.1311 128.101 41.5498 126.982 40.7581 126.455C40.8941 126.252 41.2697 125.529 41.502 125.529ZM41.8737 128.491C42.6535 128.491 43.1522 128.559 43.582 128.155C43.5992 128.139 44.0235 127.498 44.0271 127.488C44.4073 126.405 43.7108 125.82 42.7555 125.021L41.1301 123.862C40.9135 124.67 38.533 126.896 37.7834 128.306C38.3921 128.712 38.0418 128.791 38.899 128.862C39.0662 128.238 39.3016 128.255 40.0145 127.195L40.7996 127.895C40.7091 129.16 40.5725 128.102 40.5725 130.528C41.1472 130.911 40.9856 131.082 41.688 131.268C41.688 130.094 41.8737 129.723 41.8737 128.491Z" fill="#000000"/>
<path fill-rule="evenodd" clip-rule="evenodd" d="M44.4766 131.639C44.4766 134.16 46.6787 134.416 48.3811 134.416C48.7626 133.698 49.1155 133.096 49.4967 132.379C48.5707 132.164 48.1293 131.498 47.2656 131.268C47.1517 131.755 47.0967 131.812 46.894 132.194C47.6099 132.571 47.7347 132.312 47.8235 133.12C46.4549 133.886 45.6115 132.154 45.5924 132.009C45.8169 131.049 46.1882 129.956 47.1896 129.693C47.6616 129.569 48.1958 129.764 48.5019 130.039C49.5289 130.957 47.9183 131.143 50.0546 131.639C50.0546 130.319 50.1231 130.048 49.3653 129.363C48.9618 128.999 47.9799 128.466 47.3041 128.523C45.8732 128.644 44.4766 130.077 44.4766 131.639Z" fill="#000000"/>
<path fill-rule="evenodd" clip-rule="evenodd" d="M27.9272 117.382C28.2568 118.002 28.0661 117.905 28.6711 118.308C28.8817 118.168 29.0892 118.045 29.3382 117.862C30.1359 117.273 29.7049 117.246 31.0881 117.567C30.6924 118.389 30.3949 119.365 29.9725 120.159C30.2775 120.613 30.4385 120.961 30.9024 121.27L32.2039 117.753C33.4915 117.753 34.0899 117.938 35.1788 117.938C34.9803 117.199 34.9744 117.657 34.4349 116.641C33.0794 116.641 32.4899 116.457 31.2742 116.457C31.7362 115.829 32.4785 115.673 32.9477 114.975C32.3361 113.824 32.5974 113.941 30.1895 115.747C29.41 116.331 28.717 116.855 27.9272 117.382Z" fill="#000000"/>
<path fill-rule="evenodd" clip-rule="evenodd" d="M75.5282 140.155C76.7718 140.155 78.7501 139.844 79.8045 139.6C79.7057 139.177 79.6603 139.174 79.6185 138.674C78.4848 138.674 77.63 138.962 76.6438 139.044L76.4259 137.568L79.0569 137.341L79.0605 136.267C78.1583 136.287 77.1738 136.617 76.2715 136.637C76.2715 135.175 76.3489 136.055 76.0859 135.526C77.0687 135.505 78.0184 135.156 79.0605 135.156C78.9588 134.72 78.8874 134.609 78.8749 134.045C78.2323 134.194 77.3288 134.329 76.6379 134.41C74.5111 134.657 74.8656 134.663 74.9094 135.184C75.0539 136.921 75.5282 138.369 75.5282 140.155Z" fill="#000000"/>
<path fill-rule="evenodd" clip-rule="evenodd" d="M116.059 75.7248C116.101 76.225 116.147 76.2286 116.246 76.6508C117.011 76.5872 117.929 76.2657 118.663 76.0952C118.224 76.6915 117.121 77.0281 116.432 77.3913C116.53 77.8134 116.576 77.817 116.618 78.3172L119.221 78.5024C118.644 78.5024 117.186 78.8754 116.804 79.058C116.971 79.3956 116.947 79.2894 116.989 79.7985C117.787 79.7811 120.884 78.959 121.451 78.6876C121.276 78.3225 121.183 77.8328 121.08 77.3916H118.477C118.916 76.7954 120.019 76.4587 120.708 76.0955C120.648 75.3761 120.54 75.6131 120.522 74.7992C118.966 74.8336 117.491 75.6062 116.059 75.7248Z" fill="#000000"/>
<path fill-rule="evenodd" clip-rule="evenodd" d="M26.068 68.1338H25.8824L26.0372 67.9178L26.068 68.1338ZM25.5102 67.7634L25.5658 67.8188C25.5621 67.8152 25.4918 67.7821 25.5102 67.7634ZM25.8824 69.2447C24.6908 69.2447 24.3462 69.0598 23.279 69.0598C23.1185 69.7455 22.9722 69.5774 22.9072 70.3558C24.1498 70.644 25.9428 71.8095 27.1836 71.8371C27.2329 71.2635 27.1815 71.487 27.3697 71.0963C26.9428 70.9973 25.5445 70.4515 25.1386 70.1706L27.7378 70.3929C27.8403 69.9337 27.8858 69.9297 27.9276 69.4299C27.4762 69.3099 27.3279 69.1817 26.9651 68.9074C26.6187 68.6455 26.3089 68.4613 26.068 68.1338C26.9172 68.2043 27.4979 68.6884 28.2994 68.8746C28.3982 68.4524 28.4437 68.4488 28.4855 67.949C27.0378 67.613 25.8428 66.8034 24.395 66.4674C24.2179 66.8355 24.1281 67.1298 24.0232 67.5786C24.6536 68.516 25.3267 68.418 25.8824 69.2447Z" fill="#000000"/>
<path fill-rule="evenodd" clip-rule="evenodd" d="M47.0801 45.176H46.8941L47.0491 44.9596L47.0801 45.176ZM48.9392 43.8796L48.9948 43.9347C48.9912 43.9314 48.9208 43.8983 48.9392 43.8796ZM47.0801 45.176C47.8901 45.7158 48.0139 46.4101 48.9392 47.0273L49.6775 46.647C49.5528 46.3865 49.1591 44.6535 49.1255 44.25C49.8711 45.1042 49.6736 45.7371 50.427 46.2868C50.6775 46.1468 50.6324 46.1859 50.985 46.1016C50.9129 45.2409 49.5465 42.8206 49.1255 42.0283C48.5824 42.1545 48.2644 42.3515 47.824 42.5839C47.9764 42.8999 48.3707 44.6791 48.3819 45.176C47.4731 44.5702 47.4313 43.9304 46.5228 43.3247C45.9454 43.4584 45.9839 43.561 45.4072 43.6947C45.5053 44.8731 46.9023 46.2121 47.2664 47.768C47.7555 47.6543 47.8124 47.5996 48.1963 47.3976C48.003 47.0345 47.8431 46.6398 47.635 46.2901C47.3674 45.8404 47.2272 45.805 47.0801 45.176Z" fill="#000000"/>
<path fill-rule="evenodd" clip-rule="evenodd" d="M90.031 130.528C90.0626 130.906 91.4665 134.107 91.7045 134.601C91.3892 134.962 91.821 134.404 91.4471 134.9C91.2908 135.107 91.2582 135.176 91.1469 135.341H90.0314C89.6015 134.702 88.3187 132.081 88.1719 131.453L87.0603 132.016C87.454 132.757 87.6986 133.483 88.109 134.293C89.191 136.43 88.6973 135.298 89.4734 136.452C90.6123 136.452 90.9428 136.564 91.9619 135.968C94.2447 134.633 91.2861 131.828 91.1469 130.157C90.5725 130.291 90.6077 130.39 90.031 130.528Z" fill="#000000"/>
<path fill-rule="evenodd" clip-rule="evenodd" d="M58.4209 134.231C59.3498 134.252 59.7231 134.581 60.652 134.601C60.3064 135.115 57.7508 137.046 57.1194 137.379C57.1066 137.943 57.0351 138.053 56.9331 138.489C61.1336 139.464 61.3956 140.187 61.3956 138.489C60.6178 138.309 59.6517 137.953 58.7926 137.934C58.997 137.172 61.1349 135.907 61.8071 135.381C62.3377 134.966 62.3466 134.748 62.5112 134.046L58.6175 133.077C58.5045 133.556 58.4338 133.666 58.4209 134.231Z" fill="#000000"/>
<path fill-rule="evenodd" clip-rule="evenodd" d="M82.4062 134.415C83.5053 134.161 83.3921 133.956 84.2657 134.415V135.341C83.7887 135.569 83.2551 135.669 82.7782 135.897C82.7028 135.575 82.5132 134.654 82.4062 134.415ZM80.9187 133.86L82.5922 139.229C82.9618 139.053 83.2571 138.964 83.7081 138.859C83.5484 138.177 83.3203 137.549 83.1501 136.822C83.604 136.717 84.292 136.53 84.6807 136.31C86.3444 135.369 86.0942 131.387 80.9187 133.86Z" fill="#000000"/>
<path fill-rule="evenodd" clip-rule="evenodd" d="M106.578 118.308C106.578 121.076 110.443 122.946 111.942 120.317C112.539 119.271 112.268 118.664 111.784 117.753C111.215 117.885 111.069 118.041 110.669 118.308C112.593 121.171 107.694 120.886 107.694 118.308C107.694 117.861 108.254 117.363 108.683 117.284C109.39 117.156 108.688 117.754 109.403 117.236C110.487 116.449 109.056 115.394 107.615 116.564C107.168 116.927 106.578 117.869 106.578 118.308Z" fill="#000000"/>
<path fill-rule="evenodd" clip-rule="evenodd" d="M55.4449 40.3616C57.4179 39.4189 57.9416 40.7513 55.6305 41.2876C55.6075 41.0089 55.5288 40.5487 55.4449 40.3616ZM54.3293 39.806C54.3912 40.5448 55.2148 43.0808 55.4449 44.0645C55.8689 43.9662 55.8725 43.9209 56.3748 43.8793C56.302 43.0104 56.0242 42.9917 56.0028 42.0277C57.1375 42.0529 57.5911 42.6442 58.0483 43.324C58.4857 43.2224 58.5973 43.1516 59.1638 43.1385C59.0239 42.6177 58.9824 42.6092 58.5611 42.2574C58.2244 41.9769 57.9321 41.775 57.4907 41.6576V41.2872C57.6648 41.2243 58.0483 41.455 58.0483 40.3613C58.0483 38.2671 55.4123 39.2891 54.3293 39.806Z" fill="#000000"/>
<path fill-rule="evenodd" clip-rule="evenodd" d="M101.743 53.1367L102.34 53.6526L104.12 51.9859C104.113 52.5841 103.92 53.3711 103.784 53.8788C103.343 55.5285 104.263 55.7727 105.017 54.7313C105.374 54.238 105.365 54.2456 105.786 53.8309C106.489 53.1393 107.147 52.6696 107.32 52.0262C106.77 51.8797 107.019 51.9508 106.577 51.6558L104.947 53.3658C104.909 52.295 105.976 49.9894 104.903 49.9894C104.325 49.9894 104.327 50.4758 103.276 51.5168C102.715 52.0714 102.163 52.511 101.743 53.1367Z" fill="#000000"/>
<path fill-rule="evenodd" clip-rule="evenodd" d="M70.5072 39.6214C70.0849 39.3133 70.0191 39.021 69.7261 38.5473C69.4618 38.1202 69.1474 37.6918 69.0194 37.2146H67.9038C67.9038 39.902 67.8963 39.3389 68.0898 41.6579H68.8337V39.0659C69.5237 39.5693 70.3137 41.6579 70.8789 41.6579C71.8492 41.6579 71.4368 39.6959 71.4368 37.0291H70.5072V39.6214Z" fill="#000000"/>
<path fill-rule="evenodd" clip-rule="evenodd" d="M37.0404 52.0262L36.6418 51.4929C37.9825 49.6459 38.7264 51.0639 37.6915 51.7489C37.6912 51.7489 37.707 51.8489 37.0404 52.0262ZM35.3669 51.4706L36.7162 53.0892C36.9687 53.3888 37.1961 53.5347 37.4604 53.8293C37.9397 54.3633 38.1036 55.2463 38.8992 54.0627C38.471 53.4258 37.9809 53.3164 37.7837 52.5815C38.6372 52.356 39.2159 52.3924 40.3867 52.9519C40.7129 52.4668 40.4809 52.5693 41.1303 52.3963V52.0259C40.2291 51.9512 39.9651 51.6555 38.8992 51.6555C39.1744 51.0848 39.0855 50.9767 39.0855 50.1746C38.3647 49.5525 38.6185 49.619 37.598 49.619C36.9232 49.619 37.5055 49.5574 36.9822 49.9314C36.3169 50.406 35.8304 50.7813 35.3669 51.4706Z" fill="#000000"/>
<path fill-rule="evenodd" clip-rule="evenodd" d="M85.7522 40.177C86.5692 40.2446 86.8819 40.3858 87.2397 40.9175L86.8411 41.4505C86.3566 41.3544 85.8918 41.2213 85.3803 41.1027C85.5379 40.7759 85.5949 40.5038 85.7522 40.177ZM83.7068 43.3247C85.2246 43.6866 84.3971 43.4978 85.1943 41.8435C87.1749 42.8868 85.0317 43.8799 87.4254 44.4355C87.3549 43.5908 87.0419 42.9586 86.8674 42.2135C88.3615 42.09 88.8806 40.2731 86.8961 39.5933C86.3852 39.4182 85.6466 39.1193 85.0083 39.0665C84.9089 40.2547 84.0024 42.0614 83.7068 43.3247Z" fill="#000000"/>
<path fill-rule="evenodd" clip-rule="evenodd" d="M52.1006 136.638C52.1006 137.022 52.7902 137.158 53.2161 137.193C53.3527 136.609 53.5588 136.149 53.7425 135.681C54.2932 134.276 56.1372 133.935 56.9347 132.75C54.9953 131.728 55.466 133.226 53.7737 133.676C53.7737 131.596 53.7339 131.234 52.2862 130.898C52.3053 131.753 52.6138 133.023 52.777 133.938C53.0203 135.307 52.1006 135.863 52.1006 136.638Z" fill="#000000"/>
<path fill-rule="evenodd" clip-rule="evenodd" d="M58.978 39.8066C58.978 44.2729 63.2546 42.2364 63.2546 41.473C63.2546 39.7797 62.7309 39.3611 61.0235 40.177L61.2322 40.9102C61.7111 40.8758 61.715 40.8306 62.139 40.7326C62.115 41.7988 61.8563 41.6582 60.4655 41.6582C59.852 40.5034 59.9076 40.6772 59.9076 39.4365C60.2904 39.1812 60.3898 38.8809 60.8372 38.8809C62.2249 38.8809 60.9438 39.4726 62.6966 39.0661C62.1588 37.0598 58.978 38.0287 58.978 39.8066Z" fill="#000000"/>
<path fill-rule="evenodd" clip-rule="evenodd" d="M100.998 50.915H100.254C99.5345 49.8448 99.2227 50.4099 100.626 48.3233C101.716 48.3233 102.3 48.0709 102.3 49.2489C102.3 49.972 101.59 50.915 100.998 50.915ZM98.7668 49.8042C98.7668 52.6332 103.229 52.7355 103.229 49.2486C103.229 46.4969 98.7668 46.9735 98.7668 49.8042Z" fill="#000000"/>
<path fill-rule="evenodd" clip-rule="evenodd" d="M32.3918 54.6183L35.5101 57.623C36.0378 57.2572 36.3867 56.8714 36.812 56.428C37.1971 56.0264 37.6467 55.4994 37.784 54.9887C37.0049 54.3407 36.2962 55.7891 35.5526 56.285L34.809 55.7295L36.336 54.1017L35.7787 53.4678C34.6421 54.2679 34.8719 54.536 34.2514 54.9887L33.6536 54.4728L35.2204 52.8054L34.6233 52.2114C34.176 52.5097 33.8439 52.847 33.4584 53.2734C33.152 53.6127 33.2237 53.6055 32.9828 53.9106C32.7185 54.2446 32.6371 54.2532 32.3918 54.6183Z" fill="#000000"/>
<path fill-rule="evenodd" clip-rule="evenodd" d="M22.5369 73.8732C22.8003 73.3268 22.7466 73.28 23.0948 72.7624C25.5521 72.7624 25.6605 73.3694 25.3259 74.7989C23.8355 75.145 23.2437 75.2034 22.5369 73.8732ZM21.7931 73.8732C21.7931 74.6412 21.7475 74.8943 22.6794 75.5826C24.9397 77.2523 27.7386 74.3701 25.6611 72.4284C24.4939 71.3372 21.7931 71.308 21.7931 73.8732Z" fill="#000000"/>
<path fill-rule="evenodd" clip-rule="evenodd" d="M33.6938 124.048C33.7649 124.901 33.8439 124.553 34.2518 125.159C34.6313 124.906 34.9733 124.716 35.3242 124.376C35.679 124.031 35.8213 123.737 36.3677 123.563L39.6435 122.937C39.4559 122.238 39.2847 122.398 38.8996 121.826C38.6284 121.956 36.8881 122.348 36.4825 122.382C36.7314 121.865 37.082 120.777 37.2261 120.16L36.3387 119.192C36.1277 119.584 35.998 120.166 35.8561 120.647C35.3255 122.438 35.577 122.466 34.7656 123.264C34.3173 123.705 34.3206 123.881 33.6938 124.048Z" fill="#000000"/>
<path fill-rule="evenodd" clip-rule="evenodd" d="M63.6267 37.585C63.6267 38.6601 63.9658 41.0922 64.1846 42.0283C65.186 41.9454 66.2202 41.6579 67.3453 41.6579V40.7323C66.7192 40.7841 65.5118 40.967 64.9282 41.1027V39.9915C65.8295 39.9168 65.418 39.8063 66.9737 39.8063C66.9408 38.3349 66.581 39.0658 64.7426 39.0658C64.7719 37.7387 65.1465 38.3788 66.9737 37.955C66.8055 37.6171 66.8302 37.7233 66.7874 37.2142C65.6626 37.2142 64.6284 37.502 63.6267 37.585Z" fill="#000000"/>
<path fill-rule="evenodd" clip-rule="evenodd" d="M41.689 46.1016C41.8193 46.3461 43.8417 49.8045 44.106 49.8045C44.6149 49.8045 46.0274 48.5245 46.8951 48.3233C46.7483 47.7756 46.8194 48.023 46.5234 47.5825C45.5096 47.8179 45.3062 48.4583 44.2923 48.6937C44.1781 48.2066 44.1232 48.1496 43.9204 47.7677C44.3552 47.4779 45.0507 46.9863 45.5939 46.8421L45.3852 46.1085C44.5218 46.1747 44.1867 46.8076 43.3624 47.0269L42.9806 46.2917C43.612 45.959 44.2782 45.5568 44.8503 45.1756L44.4681 44.4404C43.5162 44.9419 42.6748 45.5821 41.689 46.1016Z" fill="#000000"/>
<path fill-rule="evenodd" clip-rule="evenodd" d="M92.6315 43.6948C92.6315 44.7568 93.613 45.1642 94.119 45.9165L93.72 46.4494C93.0999 46.1626 92.907 46.4045 92.6736 45.6896C92.4514 45.0095 92.9488 44.9089 91.7019 44.8056C91.7019 46.0145 91.8132 47.2125 93.7473 47.2125C94.6154 47.2125 95.0489 46.7808 95.0489 45.9165C95.0489 44.3867 93.8978 44.9476 93.5614 43.5096C94.1279 43.522 94.2391 43.5932 94.6769 43.6945C95.0683 44.507 94.5587 44.7034 95.7925 44.8053C95.7925 43.5155 95.2678 42.5836 93.7473 42.5836C93.2993 42.5836 92.6315 43.249 92.6315 43.6948Z" fill="#000000"/>
<path fill-rule="evenodd" clip-rule="evenodd" d="M50.2397 41.2876C50.3329 42.4007 51.4787 44.4837 51.7272 45.546C52.8971 45.2746 53.7184 44.7066 54.8882 44.4352C54.72 44.0973 54.7447 44.2035 54.7019 43.6944C53.7092 43.7767 53.1183 44.2418 52.2849 44.4352C52.1828 43.9993 52.1117 43.8881 52.0992 43.324C52.8632 43.147 53.2259 42.8294 53.9583 42.7688C53.5986 41.2312 53.0564 42.458 51.5413 42.5833C51.4919 42.01 51.5432 42.2335 51.355 41.8428C51.7266 41.6655 52.987 41.1981 53.4004 41.1024C53.3092 40.0105 52.7806 40.359 52.0409 40.6726C51.4142 40.9388 50.9057 41.1332 50.2397 41.2876Z" fill="#000000"/>
<path fill-rule="evenodd" clip-rule="evenodd" d="M87.7999 44.6207L90.7746 45.9167L91.1567 45.1815C90.7324 44.9579 90.6129 44.9379 90.1057 44.7314C89.5514 44.5059 89.5073 44.3876 88.9154 44.2503C89.1182 43.8687 89.1732 43.8114 89.2874 43.3246C89.8914 43.3748 89.8078 43.4053 90.2815 43.6304C90.7097 43.834 90.9658 43.89 91.3322 44.0651L91.7143 43.3299C91.2598 43.0903 90.3789 42.7081 89.845 42.5838C89.8868 42.084 89.9322 42.0804 90.031 41.6582L92.2621 42.5838C92.3608 42.1617 92.4063 42.1581 92.4481 41.6582C91.5244 41.5815 90.5129 40.7883 89.473 40.5474C89.3516 41.0672 89.2874 41.0689 89.1021 41.474L87.7999 44.6207Z" fill="#000000"/>
<path fill-rule="evenodd" clip-rule="evenodd" d="M113.271 67.9486C113.331 68.6589 114.198 70.3899 114.573 71.0959C114.912 70.9288 114.806 70.9534 115.317 70.9107C115.127 70.0992 114.593 69.3853 114.387 68.5039C114.825 68.4023 114.936 68.3311 115.503 68.3187C115.65 68.9464 115.894 69.2715 116.061 69.9851C116.563 69.9435 116.566 69.8982 116.99 69.7996L116.061 67.7631C116.484 67.6648 116.488 67.6195 116.99 67.5776C117.179 68.3849 117.545 68.6222 117.734 69.4292C119.428 69.2889 117.837 68.3111 117.362 66.2819C116 66.5975 114.366 67.8575 113.271 67.9486Z" fill="#000000"/>
<path fill-rule="evenodd" clip-rule="evenodd" d="M107.505 59.0616C107.916 59.6729 109.016 61.2974 109.551 61.6537L109.885 61.2463C109.619 59.8699 107.681 59.1682 109.737 58.6912C109.903 59.3104 109.84 59.0121 110.213 59.5127C111.003 60.5724 110.931 60.2233 111.41 59.9869C111.181 59.1321 110.523 58.805 110.294 57.9505C110.844 57.8043 110.596 57.8751 111.038 57.5801C111.257 58.3956 111.935 58.6162 112.154 59.4317L112.892 59.0511C112.726 58.4231 111.178 56.4692 111.038 56.4692C110.772 56.4692 107.822 58.5913 107.505 59.0616Z" fill="#000000"/>
<path fill-rule="evenodd" clip-rule="evenodd" d="M106.762 54.6182C106.849 54.9916 106.912 55.2391 107.073 55.6045C107.097 55.6603 107.961 57.0248 107.134 57.0248C106.748 57.0248 106.204 56.4836 106.204 56.2843C106.204 55.2974 106.842 55.6619 105.832 54.9883C103.567 56.6413 108.435 59.9368 108.435 56.4692C108.435 55.5026 107.905 55.6766 107.877 54.4327C108.844 54.5127 109.003 54.9352 108.621 55.7288L109.336 56.3158C110.53 54.592 108.795 53.5071 107.877 53.5071C107.26 53.5071 106.984 54.201 106.762 54.6182Z" fill="#000000"/>
<path fill-rule="evenodd" clip-rule="evenodd" d="M98.9543 125.344C99.1489 125.633 99.4939 126.099 99.7493 126.404L102.301 129.602C102.774 129.353 102.671 129.457 103.091 129.093C103.439 128.793 103.498 128.781 103.823 128.525L105.276 127.195C104.946 126.573 105.261 126.85 104.718 126.454C102.485 127.943 103.167 128.895 101.26 126.38C100.765 125.726 100.307 125.232 99.8839 124.603C99.2611 124.931 99.3592 124.741 98.9543 125.344Z" fill="#000000"/>
<path fill-rule="evenodd" clip-rule="evenodd" d="M116.805 72.3921H118.106C117.765 72.8988 117.759 73.0689 116.991 73.1325C116.942 72.5592 116.993 72.7825 116.805 72.3921ZM115.317 72.3921H116.061C116.108 72.9595 116.237 73.282 116.433 73.6881C115.524 75.0395 115.568 74.0411 115.875 75.3545C116.648 75.149 118.185 73.5164 119.594 72.5773L119.379 71.4727L114.573 71.4664C114.683 71.9365 114.729 72.3921 115.317 72.3921Z" fill="#000000"/>
<path fill-rule="evenodd" clip-rule="evenodd" d="M28.6724 59.6173C29.1265 59.7379 30.6046 60.7173 31.0813 61.1063C31.1107 61.1299 31.1527 61.169 31.18 61.1929C31.2074 61.2165 31.2523 61.2601 31.2764 61.282C31.3003 61.304 31.3515 61.3551 31.3706 61.3732C31.3898 61.3915 31.4308 61.4368 31.461 61.4682C31.3036 61.795 31.2464 62.0674 31.089 62.3942C29.6745 62.3942 28.8664 61.4181 27.5564 60.7278C27.3722 61.4141 27.3685 60.967 27.1843 61.6534C27.8119 61.8203 28.2905 62.2618 28.8206 62.6164C30.0805 63.4595 30.9915 64.0468 32.023 62.3971C32.9262 60.953 31.7292 60.303 30.537 59.611C29.9682 59.2813 29.6031 58.864 28.8576 58.6913C28.7591 59.1135 28.7148 59.1171 28.6724 59.6173Z" fill="#000000"/>
<path fill-rule="evenodd" clip-rule="evenodd" d="M27.3708 65.3562C26.7936 65.2225 26.8324 65.1199 26.2552 64.9862C26.357 64.6063 26.26 64.858 26.4013 64.5761C26.8736 63.6321 26.9355 63.8891 27.5569 63.8754C27.8032 64.9285 27.6399 64.3159 27.3708 65.3562ZM25.1396 65.3562C25.4987 65.5959 28.5394 67.276 29.0443 67.3934C29.247 67.0115 29.3022 66.9545 29.4161 66.4674C27.0301 65.9138 28.6725 65.1124 28.6725 64.2454C28.6725 62.7527 25.994 61.7051 25.1396 65.3562Z" fill="#000000"/>
<path fill-rule="evenodd" clip-rule="evenodd" d="M20.6785 77.761C20.6785 79.2153 21.0006 80.3531 23.2814 80.3531C24.7907 80.3531 25.906 78.6942 24.8903 77.27C24.5888 76.8468 24.4362 76.8668 24.0252 76.6502C23.8783 77.1979 23.9495 76.9504 23.6534 77.3909C23.9808 77.8357 24.397 77.8325 24.397 78.5018C24.397 79.5605 22.882 79.4874 22.0971 79.1259C21.7089 78.9469 21.7141 78.8361 21.4223 78.5018C21.8941 76.4846 22.352 78.3982 22.352 76.465C21.773 76.4777 21.5197 76.4997 21.202 76.8009C21.0579 76.9373 20.6785 77.5047 20.6785 77.761Z" fill="#000000"/>
<path fill-rule="evenodd" clip-rule="evenodd" d="M97.4676 45.546C97.933 45.7912 98.5831 45.8721 98.5831 46.472C98.5831 47.53 97.4037 46.8194 97.0959 46.6571C97.2302 46.0826 97.3333 46.1206 97.4676 45.546ZM94.8645 48.138C95.6881 48.7081 95.6798 48.8274 96.538 47.2124C97.1776 47.6385 97.483 47.9529 98.3975 47.9529C99.0262 47.9529 100.527 46.4461 98.5854 45.1733C98.116 44.8655 97.7444 44.5853 97.0959 44.4348C96.9659 44.9209 95.2523 47.5612 94.8645 48.138Z" fill="#000000"/>
<path fill-rule="evenodd" clip-rule="evenodd" d="M74.2245 41.8432C74.6136 41.8432 75.1379 41.5727 75.3976 41.3446C75.8384 40.9575 75.8341 40.832 76.084 40.3619C75.5948 40.2482 75.5375 40.1934 75.1541 39.9915C74.5079 41.2076 74.5695 40.9847 73.4806 40.7323C73.3091 39.9987 72.9819 37.9551 74.2245 37.9551C75.4388 37.9551 74.2373 38.6955 76.0836 38.6955C75.895 36.4388 72.2011 36.6449 72.2864 39.5897C72.3252 40.9208 73.2571 41.8432 74.2245 41.8432Z" fill="#000000"/>
<path fill-rule="evenodd" clip-rule="evenodd" d="M77.7595 42.0283C78.5719 42.0955 78.532 42.4184 78.7134 41.5065C79.1667 39.2232 78.8964 40.5369 79.9909 39.0662C80.3708 38.5552 80.565 38.5867 80.7342 37.955C80.0034 37.939 80.298 38.0058 79.8046 37.7698C79.5999 38.0737 79.4669 38.2123 79.249 38.5126C78.9382 38.94 78.9514 38.9521 78.5031 39.2511C78.3174 38.4578 78.0952 38.0317 77.7595 37.3998H76.8296C76.9701 38.0013 77.4165 38.8427 77.6877 39.509C78.0752 40.4596 77.7595 40.8355 77.7595 42.0283Z" fill="#000000"/>
<path fill-rule="evenodd" clip-rule="evenodd" d="M114.578 62.9596L115.138 64.0566C114.149 64.7148 113.04 65.1632 111.97 65.727C112.084 66.2137 112.139 66.2708 112.342 66.6526C113.017 66.2967 115.169 65.1068 115.689 64.9862C116.055 66.553 116.804 65.7614 116.804 65.5418C116.804 65.3258 115.515 62.9537 115.316 62.5793L114.578 62.9596Z" fill="#000000"/>
<path fill-rule="evenodd" clip-rule="evenodd" d="M29.6006 57.7656L30.1187 58.3608C30.7632 57.918 30.5725 58.0157 30.9023 57.3955C31.9728 58.1094 32.8065 58.9033 33.877 59.6172L34.4668 58.9052L32.4431 57.3424C31.973 56.9461 32.3264 57.0208 31.6459 56.8399C31.8442 56.1004 31.8504 56.5587 32.3896 55.5435L31.6513 55.1633C31.5165 55.3659 31.37 55.6183 31.2022 55.8425L29.6006 57.7656Z" fill="#000000"/>
<path fill-rule="evenodd" clip-rule="evenodd" d="M103.374 121.415L107.274 125.389L108.022 124.562L104.204 120.67L103.374 121.415Z" fill="#000000"/>
</g>
<defs fill="#000000">
<clipPath id="clip0_1_3901" fill="#000000">
<rect width="158" height="177" fill="#000000"/>
</clipPath>
</defs>
</svg>